<?xml version="1.0" standalone="no"?>
<!DOCTYPE svg PUBLIC "-//W3C//DTD SVG 1.1//EN" "http://www.w3.org/Graphics/SVG/1.1/DTD/svg11.dtd" >
<svg xmlns="http://www.w3.org/2000/svg">
<metadata>
This is a custom SVG webfont generated by Font Squirrel.
Designer    : Dalton Maag Ltd.
Foundry     : Dalton Maag Ltd.
Foundry URL : http://www.daltonmaag.com
</metadata>
<defs>
<font id="webfontXBhpRb6O" horiz-adv-x="518" >
<font-face units-per-em="1000" ascent="800" descent="-200" />
<missing-glyph horiz-adv-x="240" />
<glyph unicode=" "  horiz-adv-x="240" />
<glyph unicode="&#x09;" horiz-adv-x="240" />
<glyph unicode="&#xa0;" horiz-adv-x="240" />
<glyph unicode="!" horiz-adv-x="246" d="M110 182l-4 42q-4 34 -8 80t-9 98.5t-9 99t-6.5 81.5t-2.5 46q0 15 5 23.5t13 13t16.5 6t16.5 1.5q18 0 33.5 -8.5t15.5 -30.5q0 -8 -2 -41.5t-4.5 -80t-6.5 -100.5l-6 -100q-3 -48 -5.5 -83.5t-3.5 -46.5h-33zM124 -17q-24 0 -38 14.5t-14 37.5q0 20 14.5 35.5 t37.5 15.5q20 0 36 -13.5t16 -36.5t-15 -38t-37 -15z" />
<glyph unicode="&#x22;" horiz-adv-x="293" d="M73 480l-22 193q0 14 12.5 18.5t22.5 4.5q11 0 24 -4.5t13 -18.5l-22 -193h-28zM194 480l-22 193q0 14 12.5 18.5t22.5 4.5q11 0 24 -4.5t13 -18.5l-22 -193h-28z" />
<glyph unicode="#" d="M64 83l45 146h-105l11 39h106l51 168h-121l11 39h122l39 125h36l-39 -125h149l39 125h36l-39 -125h113l-11 -39h-114l-51 -168h129l-11 -39h-130l-45 -146h-36l45 146h-149l-45 -146h-36zM157 268h149l51 168h-149z" />
<glyph unicode="$" d="M114 -122l17 120q-36 11 -61 27q-29 17 -47.5 39t-18.5 43q0 20 13.5 29.5t33.5 9.5t33.5 -17.5t27.5 -43.5q9 -19 27 -32l37 258l-20 8q-9 4 -19 9q-22 10 -42 24.5t-35 33.5t-23.5 43.5t-8.5 56.5q0 39 13 69t34 51.5t48.5 35.5t56.5 20q25 6 48 9l13 86h31l-12 -85 q38 -1 73 -9l14 94h31l-15 -102h1q25 -8 45.5 -19t37.5 -24q17 -14 27.5 -30t10.5 -36t-11.5 -29.5t-25.5 -9.5q-25 0 -35 14.5t-18 35.5q-5 13 -15 27q-5 7 -11 12.5t-13 10.5l-36 -247l26 -8q31 -9 59.5 -23t50.5 -35t34.5 -51t12.5 -72q0 -56 -40 -102.5t-109 -70.5 q-20 -7 -42 -11t-46 -5l-15 -104h-31l15 104q-41 2 -74 9l-16 -113h-31zM272 24q37 1 64 14q24 10 38.5 25t22.5 30.5t11 30.5t3 27q0 36 -16 58t-44 37q-21 12 -44 20zM168 37q27 -11 73 -13l36 252q-17 5 -35 11l-36 13zM220 398l41 -15l30 -12l36 251l-11 3q-21 7 -53 7 h-9zM206 625q-40 -11 -66 -38t-26 -71q0 -35 11.5 -55.5t31.5 -33.5q15 -11 33 -18l32 219z" />
<glyph unicode="%" horiz-adv-x="900" d="M116 329q-24 23 -39 59t-15 90q0 51 15 87.5t39 60t53 34.5t57 11q29 0 58.5 -9.5t53.5 -32t39 -58.5t15 -89q0 -51 -15 -88t-39 -60.5t-53.5 -35t-58.5 -11.5q-28 0 -57 10t-53 32zM151 382q9 -24 26.5 -41.5t48.5 -17.5q30 0 47.5 17.5t26.5 42t11.5 51.5t2.5 46t-2 46 t-11 51.5t-26.5 41.5t-48.5 17q-29 0 -46 -17t-26 -41.5t-12 -51.5t-3 -46t2 -46t10 -52zM200 -17l454 707h53l-454 -707h-53zM562 25q-24 23 -39 59t-15 90q0 51 15 87.5t39 60t53 34.5t57 11q29 0 58.5 -9.5t53.5 -32t39 -58.5t15 -89q0 -51 -15 -88t-39 -60.5t-53.5 -35 t-58.5 -11.5q-28 0 -57 10t-53 32zM597 78q9 -24 26.5 -41.5t48.5 -17.5q30 0 47.5 17.5t26.5 42t11.5 51.5t2.5 46t-2 46t-11 51.5t-26.5 41.5t-48.5 17q-29 0 -46 -17t-26 -41.5t-12 -51.5t-3 -46t2 -46t10 -52z" />
<glyph unicode="&#x26;" horiz-adv-x="818" d="M328 605q-14 -4 -23.5 -18t-9.5 -28q0 -20 12 -34t36 -14q34 0 50 20.5t16 52.5q0 22 -8.5 39t-22 28.5t-31 17.5t-35.5 6q-33 0 -58.5 -15t-43 -39t-26 -53.5t-8.5 -59.5q0 -28 4 -45q25 5 42 5q37 0 58 -18.5t21 -41.5q0 -29 -18 -46.5t-46 -17.5q-31 0 -55 16t-41 44 q-18 -23 -24 -51.5t-6 -48.5q0 -53 20 -99t56 -80t85.5 -53.5t108.5 -19.5q32 0 74 8.5t79.5 30.5t63.5 59.5t26 94.5q0 28 -7.5 54.5t-24 47.5t-43 33.5t-63.5 12.5q-29 0 -51 -9.5t-37 -25t-22.5 -36t-7.5 -42.5q0 -42 24 -73.5t70 -31.5q12 0 26 4t25 12.5t18.5 22 t7.5 32.5q0 29 -16 43t-36 14q-15 0 -24 -6t-11 -12q22 -1 28 -13t6 -19q0 -30 -32 -30q-17 0 -28 12t-11 28q0 24 20 43.5t55 19.5q32 0 54.5 -22.5t22.5 -54.5q0 -19 -7 -37t-20.5 -32.5t-34 -23t-47.5 -8.5q-60 0 -94.5 41.5t-34.5 105.5q0 33 15 66.5t37 54.5 q19 19 40 30t45 17t51 9t58 6q25 2 53 8.5t51 21t38.5 37.5t15.5 57q0 13 -4 27t-12.5 24.5t-22.5 17.5t-33 7q-12 0 -24 -3.5t-22.5 -11t-17.5 -19t-8 -26.5q13 10 30 10t27 -10.5t10 -27.5q0 -23 -13.5 -33.5t-33.5 -10.5q-30 0 -42.5 19.5t-12.5 40.5q0 40 29.5 68.5 t81.5 28.5q48 0 83 -31t35 -94q0 -45 -17 -76.5t-46 -52.5t-66.5 -32.5t-79.5 -16.5q15 -6 30 -19.5t27 -33.5t20 -46.5t8 -59.5q0 -81 -44 -140t-119 -91q-35 -15 -71 -22t-84 -7q-64 0 -119.5 18.5t-96.5 54t-64.5 88t-23.5 120.5q0 21 5 45.5t16 48.5t27.5 46t40.5 38 q-10 27 -10 67q0 37 14 72.5t39.5 63t61 44t79.5 16.5q26 0 50 -7.5t42 -23t29 -38t11 -52.5q0 -42 -28.5 -72t-73.5 -30q-35 0 -56 21.5t-21 50.5q0 31 18 49.5t38 23.5zM187 436q8 -19 20 -30.5t30 -11.5q9 0 16 5t7 16q0 14 -13 20t-28 6q-7 0 -17 -2z" />
<glyph unicode="'" horiz-adv-x="172" d="M73 480l-22 193q0 14 12.5 18.5t22.5 4.5q11 0 24 -4.5t13 -18.5l-22 -193h-28z" />
<glyph unicode="(" horiz-adv-x="351" d="M250 -172q-29 30 -60.5 71t-58 96t-43.5 123.5t-17 152.5q0 76 18.5 147.5t47 132.5t62.5 108t65 74l27 -20q-21 -25 -47 -71t-49 -105.5t-39 -128t-16 -138.5q0 -81 15 -147.5t37 -118.5t46 -90t42 -63z" />
<glyph unicode=")" horiz-adv-x="351" d="M50 -149q21 25 47 71t49 105.5t39 128t16 138.5q0 81 -15 147.5t-37 118.5t-46 90t-42 63l30 23q28 -30 60 -71.5t58 -96t43.5 -123t17.5 -152.5q0 -76 -18.5 -147.5t-47 -132.5t-62.5 -108t-65 -74z" />
<glyph unicode="*" horiz-adv-x="451" d="M197 516q-17 -11 -28 -23l-20 -22q-9 -10 -18 -16t-20 -6q-14 0 -25 13t-11 28q0 17 16 27q10 6 20 8t21.5 3.5t24.5 4t28 8.5l18 7l-20 10q-16 8 -34 11.5t-33.5 7.5t-26 11.5t-10.5 23.5q0 14 10 27.5t26 13.5q13 0 22.5 -8t17.5 -19l18 -24q10 -13 25 -23l17 -12 l-2 22q-4 30 -12.5 49.5t-8.5 41.5q0 17 11.5 25t26.5 8q13 0 24.5 -8t11.5 -25q0 -11 -3.5 -21t-8 -20.5t-8.5 -23t-6 -28.5l-4 -20l18 12q15 10 26 22l20 22q10 10 19 17t20 7q14 0 25.5 -13.5t11.5 -28.5q0 -16 -11 -23.5t-27.5 -11.5t-35.5 -6.5t-36 -8.5l-18 -7l20 -9 q13 -7 25 -10t23 -5t21 -4.5t20 -8.5q16 -10 16 -27q0 -14 -10.5 -28t-26.5 -14q-13 0 -21.5 6.5t-16.5 17.5l-20 24q-10 13 -26 26l-16 13l2 -22q3 -30 12 -49.5t9 -41.5q0 -17 -11.5 -25t-26.5 -8q-13 0 -24.5 8t-11.5 25q0 11 3 21t7.5 20.5t8.5 23t7 28.5l3 19z" />
<glyph unicode="+" d="M237 143v161h-161v42h161v161h45v-161h160v-42h-160v-161h-45z" />
<glyph unicode="," horiz-adv-x="260" d="M84 -131q27 19 46 47.5t19 54.5q0 17 -6 23.5t-14 6.5q-6 0 -10 -1.5t-15 -1.5q-19 0 -32.5 14.5t-13.5 36.5q0 26 20.5 41.5t46.5 15.5q35 0 56 -28.5t21 -67.5q0 -31 -9.5 -56.5t-24.5 -46.5t-32.5 -36.5t-33.5 -25.5z" />
<glyph unicode="-" horiz-adv-x="377" d="M55 240v72h267v-72h-267z" />
<glyph unicode="." horiz-adv-x="260" d="M130 -9q-24 0 -40.5 16.5t-16.5 40.5t16.5 40.5t40.5 16.5q23 0 39.5 -16.5t16.5 -40.5t-16.5 -40.5t-39.5 -16.5z" />
<glyph unicode="/" horiz-adv-x="427" d="M35 -92l289 805h53l-289 -805h-53z" />
<glyph unicode="0" d="M179 3q-29 15 -56 43t-47.5 68.5t-33 94.5t-12.5 121q0 87 21.5 151t54.5 107t73.5 64t78.5 21q39 0 79.5 -20t74 -61.5t54.5 -106.5t21 -155q0 -87 -21 -152t-54.5 -108.5t-74 -65t-79.5 -21.5q-37 0 -79 20zM168 78q15 -26 36.5 -42t53.5 -16q29 0 50.5 16t36 42.5 t23.5 60t13.5 68t6 67t1.5 56.5t-1 56t-5 66t-12 67t-23 59t-37 42t-53 16q-29 0 -50 -16t-35.5 -42t-23.5 -59t-13.5 -67t-6 -66t-1.5 -56t1 -56.5t5 -67t12 -68t22 -60.5z" />
<glyph unicode="1" d="M119 0v32l72 5q26 2 36 12.5t10 41.5v391q0 32 -15 46t-53 17l-40 3v28q18 3 39.5 10.5t43 18.5t41.5 26.5t35 34.5h32v-575q0 -31 10 -41.5t36 -12.5l71 -5v-32h-318z" />
<glyph unicode="2" d="M60 0q4 45 28 92t58 93.5t73 91.5t71.5 87.5t54 81t21.5 71.5q0 50 -26 69.5t-65 19.5q-33 0 -62.5 -17t-53 -40t-40.5 -47l-26 -37l-34 16q18 33 42.5 67t56 62t70 45.5t84.5 17.5q25 0 51.5 -7.5t48.5 -24t35.5 -41.5t13.5 -61q0 -41 -17.5 -77t-45.5 -71t-64 -70 l-71 -73q-36 -39 -69.5 -82t-57.5 -94h206q22 0 39 8.5t29.5 21.5t21 28t14.5 28l31 -11l-69 -196h-28q0 21 -13 35t-56 14h-251z" />
<glyph unicode="3" d="M179 333q18 12 43.5 34t48.5 49t39.5 57t16.5 59q0 32 -18.5 51t-63.5 19q-42 0 -76.5 -23t-68.5 -58l-25 22q16 21 38.5 43.5t49.5 42t57 32t62 12.5q52 0 85.5 -25.5t33.5 -73.5q0 -28 -12.5 -55t-30.5 -51t-38 -44l-33 -35q17 -2 45.5 -10.5t56 -29t47.5 -54.5t20 -86 q0 -39 -16 -79.5t-45.5 -73t-71.5 -53t-93 -20.5q-35 0 -68.5 8.5t-60 22.5t-42.5 33.5t-16 42.5q0 20 12.5 31.5t30.5 11.5q26 0 37.5 -17.5t23 -39t29 -39t55.5 -17.5q31 0 57.5 12.5t45.5 34t30 50.5t11 62q0 36 -11 61.5t-29.5 41.5t-42.5 23.5t-49 7.5q-12 0 -25 -1.5 t-24 -4.5z" />
<glyph unicode="4" d="M32 199v40l302 427h56v-403h90v-64h-90v-199h-84v199h-274zM103 263h203v288z" />
<glyph unicode="5" d="M109 379l42 273h206q26 0 40 13t24 29l27 -9l-46 -90q-7 -16 -31 -16h-184l-20 -124q83 -2 137 -26t86 -58.5t44.5 -74t12.5 -71.5q0 -47 -16 -91t-46.5 -77.5t-74.5 -53.5t-100 -20q-24 0 -53.5 5.5t-56 17t-44.5 30.5t-18 46q0 17 12 30t32 13q26 0 37 -16.5t21.5 -36 t28 -36t56.5 -16.5q25 0 51.5 10t48 31t35 54.5t13.5 80.5q0 34 -13 66t-39 56t-67 38.5t-96 14.5q-8 0 -19.5 -0.5t-16.5 -0.5z" />
<glyph unicode="6" d="M407 646q-40 -18 -80.5 -45t-75.5 -63t-61 -80.5t-37 -96.5q20 12 54.5 28t86.5 16q43 0 79.5 -15t62.5 -41.5t40.5 -63.5t14.5 -80q0 -34 -11 -73t-37 -72t-68 -55t-105 -22q-62 0 -105 25t-69.5 64.5t-38 88t-11.5 96.5q0 58 16 108.5t42.5 93.5t62 78t74 62t78 45.5 t75.5 28.5zM169 329q-12 -6 -21 -11q-4 -21 -6 -38.5t-2 -40.5q0 -111 34 -165.5t95 -54.5q23 0 46 9t41.5 30t30 54.5t11.5 82.5q0 81 -34.5 122t-97.5 41q-39 0 -70 -15q-15 -7 -27 -14z" />
<glyph unicode="7" d="M79 505l60 184h28q0 -21 14.5 -29t58.5 -8h226l10 -20l-60 -136q-30 -70 -57 -143t-50 -149t-39 -153q-14 -68 -63 -68q-21 0 -33 12.5t-12 29.5q0 11 3 24.5t12 34.5q14 35 36 84l47 100l50 106l48 96l37 74l19 38h-195q-23 0 -39.5 -8t-29.5 -20.5t-22.5 -28 t-17.5 -31.5z" />
<glyph unicode="8" d="M325 359q25 -14 51 -30.5t47 -38t34 -48.5t13 -63q0 -34 -12 -68.5t-37.5 -63t-66 -46.5t-96.5 -18q-52 0 -91.5 14.5t-66 38.5t-40 53.5t-13.5 59.5q0 33 12 60t32 50t47 41.5t56 33.5q-29 17 -52 33t-38.5 34.5t-24 42.5t-8.5 57q0 37 14.5 68.5t40 54.5t60 36t73.5 13 q37 0 69.5 -9t57 -28t39 -47t14.5 -65q0 -32 -15 -58.5t-35 -46.5t-41 -34t-34 -20zM227 319q-17 -12 -35.5 -28t-33.5 -35.5t-24.5 -44t-9.5 -54.5q0 -67 36 -101.5t96 -34.5q28 0 52.5 8t42.5 23.5t28.5 38t10.5 52.5q0 28 -8 49.5t-22 38.5t-33 30.5t-41 25.5zM279 381 l27 23q15 13 29.5 31.5t24.5 41.5t10 52q0 57 -31.5 82.5t-79.5 25.5q-21 0 -41 -6.5t-35.5 -20t-25 -33t-9.5 -46.5q0 -47 27.5 -77t67.5 -53z" />
<glyph unicode="9" d="M114 3q40 18 80.5 46.5t76 65.5t61.5 82.5t37 97.5q-20 -12 -57 -28t-89 -16q-44 0 -79.5 15t-61 41.5t-39.5 63t-14 80.5q0 34 11 73t37 72t68 55t105 22q62 0 105 -24t69.5 -63.5t38 -90.5t11.5 -104q0 -84 -34.5 -154t-86.5 -123t-113 -88.5t-115 -50.5zM374 338 q4 21 6 38.5t2 40.5q0 111 -35 165.5t-96 54.5q-23 0 -46 -9t-41 -30t-29.5 -54.5t-11.5 -82.5q0 -163 133 -163q26 0 51 8t45 19z" />
<glyph unicode=":" horiz-adv-x="281" d="M141 -9q-24 0 -40.5 16.5t-16.5 40.5t16.5 40.5t40.5 16.5q23 0 39.5 -16.5t16.5 -40.5t-16.5 -40.5t-39.5 -16.5zM141 324q-24 0 -40.5 16.5t-16.5 40.5t16.5 40.5t40.5 16.5q23 0 39.5 -16.5t16.5 -40.5t-16.5 -40.5t-39.5 -16.5z" />
<glyph unicode=";" horiz-adv-x="281" d="M94 -131q27 19 46 47.5t19 54.5q0 17 -6 23.5t-14 6.5q-6 0 -10 -1.5t-15 -1.5q-19 0 -32.5 14.5t-13.5 36.5q0 26 20.5 41.5t46.5 15.5q35 0 56 -28.5t21 -67.5q0 -31 -9.5 -56.5t-24.5 -46.5t-32.5 -36.5t-33.5 -25.5zM141 324q-24 0 -40.5 16.5t-16.5 40.5t16.5 40.5 t40.5 16.5q23 0 39.5 -16.5t16.5 -40.5t-16.5 -40.5t-39.5 -16.5z" />
<glyph unicode="&#x3c;" d="M69 299v36l379 185v-53l-307 -147v-4l307 -149v-52z" />
<glyph unicode="=" d="M75 234v42h366v-42h-366zM75 364v42h366v-42h-366z" />
<glyph unicode="&#x3e;" d="M69 115v52l307 149v4l-307 147v53l379 -185v-36z" />
<glyph unicode="?" horiz-adv-x="445" d="M144 171v169q0 12 8 20.5t33 8.5q22 0 49 2.5t49.5 11.5t38 25.5t15.5 45.5q0 12 -1.5 25.5t-9 27t-22.5 26.5t-42 24q-16 6 -37.5 13t-41.5 16.5t-34 22.5t-14 31t13 25.5t27 7.5q23 0 50.5 -11t55.5 -29q48 -30 75.5 -78.5t27.5 -102.5q0 -69 -44 -108.5t-132 -42.5 q-11 0 -15 -6.5t-4 -16.5v-107h-45zM168 -17q-23 0 -37.5 16t-14.5 37q0 23 14.5 38.5t37.5 15.5q20 0 35.5 -15.5t15.5 -38.5q0 -21 -15.5 -37t-35.5 -16z" />
<glyph unicode="@" horiz-adv-x="765" d="M578 -108q-46 -28 -99.5 -38.5t-95.5 -10.5q-62 0 -122.5 18t-108 55.5t-77 95t-29.5 136.5q0 88 32.5 159.5t87.5 122t126.5 78t148.5 27.5q69 0 124 -22t93 -58t58 -83t20 -97q0 -52 -16.5 -98.5t-46 -82t-69.5 -56t-88 -20.5q-39 0 -61.5 19.5t-22.5 55.5v9q0 2 1 10 q-34 -50 -68 -66.5t-66 -16.5q-16 0 -32 4t-29 15t-21 29t-8 47q0 43 18.5 90.5t49.5 87.5t71 66t84 26q27 0 42.5 -12t21.5 -22l13 34h62l-76 -264q-6 -21 -6 -36q0 -42 42 -42q29 0 58 15t52 43.5t37.5 69t14.5 91.5q0 53 -20 95.5t-55.5 72.5t-83 46t-102.5 16 q-74 0 -133 -29t-100 -78t-62.5 -112.5t-21.5 -132.5q0 -44 14.5 -92t49 -88t91.5 -65.5t143 -25.5q54 0 92 12t63 23zM281 99q8 -18 19.5 -24t23.5 -6q24 0 53.5 24t54.5 81q3 6 9.5 21.5t13 35t11.5 41t5 40.5q0 21 -8.5 35t-29.5 14q-23 0 -50.5 -24t-51 -59t-39 -75 t-15.5 -72q0 -21 4 -32z" />
<glyph unicode="A" horiz-adv-x="736" d="M5 0v32l25 3q26 3 42.5 23t28.5 49l238 572h49l254 -588q11 -25 21.5 -39.5t36.5 -16.5l31 -3v-32h-284v32l32 3q49 3 49 38q0 19 -11 46l-47 112h-267l-48 -119q-5 -14 -8.5 -25.5t-3.5 -19.5q0 -18 11 -24t29 -8l28 -3v-32h-206zM221 273h233l-122 275z" />
<glyph unicode="B" horiz-adv-x="645" d="M34 0v32l41 3q26 2 36 11t10 40v501q0 31 -10 40t-36 11l-41 3v32h274q36 0 79 -4.5t80.5 -20t62.5 -47t25 -85.5q0 -40 -16.5 -68t-39 -46.5t-45.5 -28t-35 -12.5q9 0 26.5 -3.5t38 -11.5t42 -21t39 -32t29 -44.5t11.5 -57.5q0 -99 -83 -145t-240 -46h-248zM218 133 q0 -22 2.5 -39.5t12 -30t28.5 -19t51 -6.5q40 0 74 7.5t58.5 24.5t38 44.5t13.5 67.5q0 45 -17.5 73t-46 44.5t-65 22.5t-73.5 6h-76v-195zM218 367h25q31 0 56 3t42 6q21 4 42 12.5t38 24t27.5 40.5t10.5 61q0 60 -46 90.5t-143 30.5h-52v-268z" />
<glyph unicode="C" horiz-adv-x="734" d="M645 3l-17 52q-12 -9 -34 -21t-51.5 -23.5t-66 -19.5t-76.5 -8q-75 0 -139.5 22.5t-112.5 67t-75 109.5t-27 149q0 73 27 138.5t75 114.5t112.5 77.5t139.5 28.5q49 0 87 -9t65.5 -20.5t45 -22t25.5 -13.5l15 47h31l10 -228h-31q-6 22 -18.5 56.5t-39.5 67.5t-72.5 57 t-117.5 24q-62 0 -106 -26.5t-72.5 -70.5t-42 -101.5t-13.5 -119.5q0 -54 13 -108.5t41.5 -98t74 -71t110.5 -27.5q50 0 89 10t68.5 32t50 57.5t33.5 86.5h31v-209h-32z" />
<glyph unicode="D" horiz-adv-x="771" d="M34 0v32l41 3q26 2 36 11t10 40v501q0 31 -10 40t-36 11l-41 3v32h291q78 0 138 -13t106 -38q43 -24 73 -55t48.5 -67.5t26.5 -76.5t8 -82q0 -74 -18.5 -127.5t-50 -91.5t-74 -62t-90.5 -37t-99.5 -18t-101.5 -5h-257zM219 122q0 -44 19 -64t72 -20q57 0 111 11 t96.5 43.5t68 92t25.5 157.5q0 53 -9.5 93t-25.5 69.5t-37.5 50.5t-45.5 36q-42 27 -88 35t-104 8h-82v-512z" />
<glyph unicode="E" horiz-adv-x="631" d="M34 0v32l41 3q26 2 36 11t10 40v501q0 31 -10 40t-36 11l-41 3v32h499l51 -148l-30 -13q-13 22 -27.5 43.5t-37 39t-56.5 28.5t-85 11h-129v-274h76q65 0 90.5 28.5t29.5 85.5h31v-270h-32q0 35 -7.5 58t-22.5 36.5t-38 19t-53 5.5h-74v-216q0 -33 12.5 -51t53.5 -18h76 q29 0 58.5 2.5t57.5 18.5q46 25 69 59.5t38 66.5l30 -9l-46 -176h-534z" />
<glyph unicode="F" horiz-adv-x="609" d="M34 0v32l41 3q26 2 36 11t10 40v501q0 31 -10 40t-36 11l-41 3v32h509l51 -148l-30 -13q-13 22 -27.5 43.5t-37 39t-56.5 28.5t-85 11h-139v-274h76q65 0 90.5 28.5t29.5 85.5h31v-270h-32q0 35 -7.5 58t-22.5 36.5t-38 19t-53 5.5h-74v-236q0 -31 15 -40.5t41 -11.5 l51 -3v-32h-292z" />
<glyph unicode="G" horiz-adv-x="787" d="M677 68q-34 -24 -80 -43q-38 -16 -89.5 -29t-114.5 -13q-53 0 -113.5 16.5t-112.5 55.5t-86.5 104.5t-34.5 163.5q0 87 30 155t79.5 115t114 72t133.5 25q41 0 74.5 -7.5t60 -18t45 -21t30.5 -16.5l15 46h31l8 -213h-31q-6 21 -20 53.5t-41 62.5t-70.5 51.5t-108.5 21.5 q-57 0 -100.5 -26t-73.5 -70.5t-45 -104.5t-15 -129q0 -37 9 -87.5t35.5 -96.5t73.5 -78t124 -32q30 0 61 5t56.5 19t41.5 38.5t16 63.5v71q0 29 -10 40.5t-36 13.5l-47 3v32h278v-32l-41 -3q-26 -2 -36 -13.5t-10 -40.5v-154z" />
<glyph unicode="H" horiz-adv-x="803" d="M34 0v32l41 3q26 2 36 13.5t10 42.5v491q0 31 -10 42.5t-36 13.5l-41 3v32h278v-32l-47 -3q-26 -2 -36 -13.5t-10 -42.5v-221h365v221q0 31 -10 42.5t-36 13.5l-47 3v32h278v-32l-41 -3q-26 -2 -36 -13.5t-10 -42.5v-491q0 -31 10 -42.5t36 -13.5l41 -3v-32h-278v32l47 3 q26 2 36 13.5t10 42.5v225h-365v-225q0 -31 10 -42.5t36 -13.5l47 -3v-32h-278z" />
<glyph unicode="I" horiz-adv-x="346" d="M34 0v32l41 3q26 2 36 13.5t10 42.5v491q0 31 -10 42.5t-36 13.5l-41 3v32h278v-32l-47 -3q-26 -2 -36 -13.5t-10 -42.5v-491q0 -31 10 -42.5t36 -13.5l47 -3v-32h-278z" />
<glyph unicode="J" horiz-adv-x="340" d="M219 55q0 -45 -8.5 -91.5t-30.5 -84.5t-59 -62t-94 -24q-42 0 -63.5 18.5t-21.5 45.5q0 15 5.5 26t14 18t17.5 10t17 3q21 0 36 -12q12 -9 18 -20t10.5 -20.5t10 -16t16.5 -6.5q17 0 25.5 22t8.5 84v637q0 31 -10 42.5t-36 13.5l-41 3v32h278v-32l-47 -3 q-26 -2 -36 -13.5t-10 -42.5v-527z" />
<glyph unicode="K" horiz-adv-x="735" d="M34 0v32l41 3q26 2 36 13.5t10 42.5v491q0 31 -10 42.5t-36 13.5l-41 3v32h278v-32l-47 -3q-26 -2 -36 -13.5t-10 -42.5v-251l217 202q26 25 41 42.5t15 31.5q0 16 -12.5 22.5t-32.5 8.5l-34 3v32h268v-32l-24 -2q-25 -2 -52 -16.5t-52 -38.5l-200 -189l258 -309 q15 -18 33.5 -31.5t44.5 -16.5l41 -5v-33h-324v32l24 3q20 2 34 9t14 23q0 8 -5 19.5t-21 29.5l-177 212l-56 -53v-184q0 -31 10 -42.5t36 -13.5l27 -3v-32h-258z" />
<glyph unicode="L" horiz-adv-x="668" d="M35 0v32l40 3q25 2 35.5 12.5t10.5 38.5v497q0 29 -10 41t-36 14l-41 3v32h278v-32l-46 -3q-26 -2 -36 -14.5t-10 -43.5v-474q0 -33 12.5 -50.5t53.5 -17.5h96q34 0 63 6t57 22q23 12 41 31.5t32 41t25 42.5l18 37l30 -9l-59 -209h-554z" />
<glyph unicode="M" horiz-adv-x="946" d="M40 0v32l41 3q26 2 36 13.5t10 42.5v505q0 22 -11.5 31t-34.5 11l-47 3v32h207l244 -544l232 544h195v-32l-47 -3q-25 -2 -35.5 -12.5t-10.5 -36.5v-498q0 -31 10 -42.5t36 -13.5l47 -3v-32h-278v32l41 3q26 2 36 13.5t10 42.5v471l-244 -572h-34l-268 588v-487 q0 -31 10 -42.5t36 -13.5l47 -3v-32h-228z" />
<glyph unicode="N" horiz-adv-x="798" d="M34 0v32l39 3q26 2 36 13.5t10 42.5v502q-19 19 -37 32.5t-43 16.5v31h160l430 -519v428q0 31 -10 42.5t-36 13.5l-41 3v32h228v-32l-45 -3q-26 -2 -36 -13.5t-10 -42.5v-590h-42l-468 566v-467q0 -31 10 -42.5t36 -13.5l47 -3v-32h-228z" />
<glyph unicode="O" horiz-adv-x="782" d="M202 137q26 -48 70.5 -80.5t118.5 -32.5q49 0 85 15t61.5 40.5t42 58t26 67t13 69t3.5 62.5q0 29 -3.5 63t-13 69t-26 67.5t-42 58t-61.5 40.5t-85 15t-85 -15t-61.5 -40.5t-42 -58t-26 -67.5t-13 -69t-3.5 -63q0 -44 9 -96.5t33 -102.5zM154 80q-48 48 -78 112.5 t-30 143.5t30 144.5t78.5 112t110.5 72t126 25.5t126 -25.5t110.5 -72t78.5 -112t30 -144.5t-30 -144t-78.5 -111.5t-110.5 -72t-126 -25.5t-126 25.5t-111 71.5z" />
<glyph unicode="P" horiz-adv-x="612" d="M34 0v32l41 3q26 2 36 11t10 40v501q0 31 -10 40t-36 11l-41 3v32h303q42 0 84 -10.5t75.5 -33.5t54.5 -59t21 -88q0 -57 -21 -96t-57.5 -64t-86 -36t-107.5 -11h-80v-192q0 -29 10 -37.5t36 -10.5l41 -3v-32h-273zM220 316h69q91 0 137 37.5t46 122.5q0 64 -24 100 t-64 50q-14 5 -30 6.5t-38 1.5h-96v-318z" />
<glyph unicode="Q" horiz-adv-x="782" d="M304 -97q27 0 50.5 -5t46.5 -11.5t47 -11.5t51 -5q40 0 65.5 7t40.5 19t23 27t13 30h33q-2 -27 -11 -56t-29 -53.5t-52 -40.5t-80 -16q-54 0 -91 15t-65 33l-48 33q-22 15 -46 15q-10 0 -17 -3t-7 -10q0 -6 4 -10t4 -17q0 -14 -11 -23.5t-26 -9.5q-17 0 -27 10t-10 25 q0 12 5.5 20t18 16.5t32.5 18.5l46 25l109 58q-51 0 -108.5 24t-106 70t-80.5 111t-32 148q0 79 30 144.5t78.5 112t110.5 72t126 25.5t126 -25.5t110.5 -72t78.5 -112t30 -144.5q0 -69 -25.5 -125t-64.5 -98.5t-84.5 -73t-85.5 -48.5l-46 -21q-27 -11 -54 -24l-42 -20 q-19 -9 -44 -23h14zM202 137q26 -48 70.5 -80.5t118.5 -32.5q49 0 85 15t61.5 40.5t42 58t26 67t13 69t3.5 62.5q0 29 -3.5 63t-13 69t-26 67.5t-42 58t-61.5 40.5t-85 15t-85 -15t-61.5 -40.5t-42 -58t-26 -67.5t-13 -69t-3.5 -63q0 -44 9 -96.5t33 -102.5z" />
<glyph unicode="R" horiz-adv-x="712" d="M34 0v32l41 3q26 2 36 11t10 40v501q0 31 -10 40t-36 11l-41 3v32h303q42 0 86 -9t80 -30t59 -56t23 -87q0 -45 -22.5 -77t-51.5 -53.5t-57 -33t-38 -14.5q13 -8 26.5 -19t27.5 -26.5t30 -37t35 -50.5l23 -37l16 -26l12.5 -19t11.5 -15q23 -28 43 -37t46 -11l19 -2v-33 h-176l-110 163l-34 47q-17 23 -38 41t-48.5 29t-64.5 11h-15v-210q0 -27 10 -35.5t36 -10.5l41 -3v-32h-273zM220 331h69q28 0 61.5 8t62 26.5t47.5 48t19 72.5q0 81 -48.5 114.5t-130.5 33.5h-80v-303z" />
<glyph unicode="S" horiz-adv-x="593" d="M76 0l-5 205h31q9 -32 22 -64.5t35 -58t55.5 -41.5t83.5 -16q42 0 71.5 11t48 29t27 40t8.5 44t-5 41t-19.5 35.5t-41 30.5t-69.5 26l-69 20q-20 6 -49 16.5t-56 31t-46 53t-19 82.5q0 57 21 96t54 63.5t73 35t78 10.5q32 0 58 -5t47 -11.5t36 -14.5l28 -14l12 30h31 l10 -207h-31q-8 27 -19.5 59t-33 59t-55.5 45t-88 18q-61 0 -98 -35t-37 -96q0 -50 29.5 -77.5t88.5 -44.5l80 -23q30 -9 61.5 -22t58 -34.5t43.5 -53.5t17 -79q0 -44 -19 -81t-52 -63.5t-78.5 -41.5t-97.5 -15q-35 0 -62.5 6t-48.5 14t-37.5 17.5t-29.5 15.5l-10 -36h-32z " />
<glyph unicode="T" horiz-adv-x="715" d="M211 0v32l50 4q26 2 36.5 13t10.5 41v544h-74q-48 0 -80 -13.5t-54.5 -34t-37.5 -45.5l-27 -49l-30 13l45 181l21 11q38 -24 91 -24h391q53 0 91 24l21 -11l45 -181l-30 -13l-28 49q-14 25 -36.5 45.5t-54.5 34t-80 13.5h-75v-543q0 -31 10 -42.5t36 -13.5l57 -3v-32 h-298z" />
<glyph unicode="U" horiz-adv-x="766" d="M214 231q0 -96 45.5 -149.5t146.5 -53.5q58 0 95.5 17.5t59.5 50.5t30.5 80t8.5 106v300q0 31 -10 42.5t-36 13.5l-47 3v32h230v-32l-41 -3q-26 -2 -36 -13.5t-10 -42.5v-314q0 -63 -11 -115.5t-40 -90t-80 -58.5t-130 -21q-84 0 -137.5 19.5t-83.5 54t-41 82t-11 104.5 v339q0 31 -10 42.5t-36 13.5l-41 3v32h278v-32l-47 -3q-26 -2 -36 -13.5t-10 -42.5v-351z" />
<glyph unicode="V" horiz-adv-x="728" d="M343 -6l-229 562q-18 45 -35.5 62.5t-43.5 19.5l-30 3v32h291v-32l-47 -3q-35 -2 -35 -40q0 -18 9 -42l169 -423l182 443q5 13 5 23q0 13 -7 21q-14 16 -40 18l-37 3v32h228v-32l-28 -3q-26 -3 -43 -15t-28 -40l-240 -589h-41z" />
<glyph unicode="W" horiz-adv-x="1040" d="M320 -6l-206 562q-17 45 -35 62.5t-44 19.5l-30 3v32h291v-32l-47 -3q-35 -2 -35 -40q0 -18 9 -42l148 -405l140 356l-18 49q-17 45 -35 62.5t-44 19.5l-30 3v32h291v-32l-47 -3q-17 -1 -29 -11.5t-12 -28.5q0 -9 1.5 -19.5t6.5 -22.5l153 -405l135 425q4 9 4 22 q0 37 -43 40l-37 3v32h228v-32l-28 -3q-26 -3 -45.5 -19t-30.5 -48l-187 -577h-41l-170 445l-172 -445h-41z" />
<glyph unicode="X" horiz-adv-x="744" d="M5 0v32l31 3q26 3 52 21.5t45 42.5l184 232l-161 220l-26 35q-13 15 -25.5 26t-28 17.5t-35.5 8.5l-30 3v32h324v-32l-47 -3q-39 -3 -39 -34q0 -22 20 -48l114 -152l128 164q16 20 16 37q0 28 -37 33l-34 3v32h245v-32l-31 -3q-26 -3 -48.5 -18t-41.5 -38l-169 -217 l183 -243l26 -34q12 -16 25 -27t28.5 -17.5t35.5 -8.5l30 -3v-32h-324v32l47 3q38 3 38 32q0 21 -20 49l-131 176l-155 -196q-13 -14 -13 -30q0 -28 38 -31l41 -3v-32h-255z" />
<glyph unicode="Y" horiz-adv-x="684" d="M195 0v32l47 3q26 2 35.5 14.5t9.5 41.5v204l-159 261q-27 44 -47 62t-46 20l-30 3v32h285v-32l-38 -3q-35 -3 -35 -31q0 -18 19 -49l125 -207l156 229q12 16 12 31q0 25 -33 27l-38 3v32h221v-32l-28 -3q-26 -3 -42.5 -16t-34.5 -39l-188 -275v-217q0 -31 10 -42.5 t36 -13.5l41 -3v-32h-278z" />
<glyph unicode="Z" horiz-adv-x="679" d="M64 0l-14 32l448 603h-176q-34 0 -63 -6t-57 -22q-46 -25 -76.5 -62.5t-50.5 -75.5l-30 9l70 195h500l11 -25l-452 -610h205q34 0 63 6t57 22q23 12 42.5 31.5t35.5 41t27 43.5l20 37l30 -9l-68 -210h-522z" />
<glyph unicode="[" horiz-adv-x="337" d="M109 -163v886h173v-35h-108v-817h108v-34h-173z" />
<glyph unicode="\" horiz-adv-x="427" d="M329 -92l-289 805h53l289 -805h-53z" />
<glyph unicode="]" horiz-adv-x="337" d="M45 -163v34h108v817h-108v35h173v-886h-173z" />
<glyph unicode="^" horiz-adv-x="524" d="M58 332l185 379h36l184 -379h-52l-149 307h-4l-147 -307h-53z" />
<glyph unicode="_" horiz-adv-x="500" d="M0 -174v32h500v-32h-500z" />
<glyph unicode="`" horiz-adv-x="500" d="M322 485l-111 158q-4 4 -4 12t5.5 14.5t12.5 10.5q11 7 22 7q14 0 20 -13l76 -178z" />
<glyph unicode="a" horiz-adv-x="452" d="M365 94q0 -23 4 -40t21 -17q9 0 16 5.5t9 9.5l18 -19q-2 -3 -7.5 -10t-15 -14t-22.5 -12.5t-29 -5.5q-19 0 -31 5t-19.5 13t-12 18t-7.5 20q-7 -7 -20 -16.5t-30.5 -18.5t-39 -15t-45.5 -6q-48 0 -79.5 26.5t-31.5 72.5q0 40 28.5 74t102.5 66l113 48v72q0 18 -5.5 29.5 t-14 18t-18.5 9.5t-19 3q-19 0 -33.5 -3t-30.5 -10q-20 -8 -27.5 -20.5t-7.5 -26.5q0 -23 -8.5 -40.5t-35.5 -17.5q-17 0 -26 10.5t-9 25.5q0 19 21 43.5t73 49.5q32 16 60 23.5t60 7.5q45 0 72 -23.5t27 -68.5v-266zM188 192q-41 -19 -53 -41.5t-12 -41.5q0 -24 17 -45 t50 -21q31 0 57 15t40 27v151z" />
<glyph unicode="b" horiz-adv-x="526" d="M84 0v608q-1 13 -5.5 19.5t-18.5 10.5l-30 6v26l109 43h24v-324q9 10 22 21.5t30.5 20.5t40 15t51.5 6q36 0 68.5 -13.5t57.5 -39.5t40 -64.5t15 -87.5q0 -66 -21 -113.5t-53.5 -78.5t-72.5 -46t-78 -15q-45 0 -78.5 15.5t-53.5 28.5l-13 -38h-34zM163 145q0 -29 9 -50 t23.5 -34.5t33.5 -20t39 -6.5q60 0 98.5 48t38.5 139q0 38 -9.5 70t-27 55t-42 36t-53.5 13q-21 0 -39.5 -6t-33 -14t-24.5 -17t-13 -15v-198z" />
<glyph unicode="c" horiz-adv-x="462" d="M431 126q-3 -10 -15 -32t-34.5 -45t-55.5 -40.5t-78 -17.5q-50 0 -89 16t-65.5 45t-40.5 69t-14 87q0 54 17.5 98.5t47 77t69.5 50.5t85 18q42 0 72.5 -11t50.5 -26.5t29.5 -33.5t9.5 -32q0 -19 -11.5 -30.5t-30.5 -11.5q-27 0 -38 15.5t-13 41.5q-5 50 -72 50 q-26 0 -49 -11.5t-41 -34.5t-28.5 -57.5t-10.5 -80.5q0 -39 9 -71t27 -55t45.5 -35.5t64.5 -12.5q31 0 54.5 11t39.5 25t25 28t12 20z" />
<glyph unicode="d" horiz-adv-x="541" d="M380 3v54q-9 -10 -22 -21.5t-30.5 -21.5t-40 -16.5t-50.5 -6.5q-41 0 -76.5 16t-62 46t-42 73t-15.5 96q0 49 17 91t47 73t71 48.5t89 17.5q42 0 66.5 -8t44.5 -16v182q-1 11 -5.5 17.5t-18.5 10.5l-30 6v26l109 43h24v-637q0 -10 3.5 -13.5t10.5 -5.5l47 -8v-26 l-121 -32zM376 376q-22 15 -45.5 25.5t-60.5 10.5q-25 0 -50.5 -8t-45.5 -27.5t-33 -53.5t-13 -85q0 -45 11.5 -80t31 -58.5t46.5 -36t58 -12.5q38 0 62.5 15t38.5 31v279z" />
<glyph unicode="e" horiz-adv-x="454" d="M118 255q-1 -7 -1 -13v-15q0 -27 8.5 -57t26.5 -54.5t45 -40.5t64 -16q35 0 59 13t39 29t22 30.5t8 17.5l30 -12q-24 -66 -69 -106t-115 -40q-47 0 -84 18t-62.5 49t-38.5 72t-13 86q0 39 13 80.5t38.5 76t63 57t87.5 22.5q46 0 80 -18.5t56.5 -47t33.5 -63.5t11 -68 h-302zM320 296q0 18 -4.5 38.5t-15 38t-28 29t-44.5 11.5q-42 0 -69 -30t-36 -87h197z" />
<glyph unicode="f" horiz-adv-x="285" d="M18 0v29l36 3q21 1 29 10t8 41v311h-76v49h76v56q0 37 11 75t32 69t50.5 50.5t66.5 19.5q28 0 42.5 -12t14.5 -28q0 -20 -12 -30.5t-29 -10.5q-14 0 -23 6t-14 11t-9.5 10t-12.5 5q-18 0 -28 -35t-10 -119v-67h102v-49h-102v-311q0 -32 8 -41t29 -10l38 -3v-29h-227z" />
<glyph unicode="g" horiz-adv-x="481" d="M213 -23q-26 0 -40.5 1t-21.5 2l-18 -9q-10 -5 -18.5 -13t-14.5 -19.5t-6 -28.5q0 -78 134 -78q91 0 137 21t46 55q0 21 -17.5 34.5t-44 21t-57 10.5t-55.5 3h-24zM158 207q23 -32 67 -32q13 0 29 5.5t29.5 19.5t22.5 37.5t9 60.5q0 64 -26.5 92t-63.5 28 q-39 0 -64.5 -32t-25.5 -89q0 -56 23 -90zM276 46q28 -1 62.5 -5t64 -16.5t49.5 -36.5t20 -64q0 -60 -62 -95.5t-186 -35.5q-62 0 -101 10t-61 25.5t-29.5 33t-7.5 32.5q0 28 21 53t57 45q-51 25 -51 76q0 15 6.5 30t16.5 28t21.5 24t22.5 18q-30 17 -49.5 49.5t-19.5 74.5 q0 25 9.5 53t30 52t54 39.5t81.5 15.5t84.5 -16t57.5 -37q14 18 31.5 35.5t45.5 17.5q21 0 31.5 -11t10.5 -25q0 -11 -8 -22.5t-25 -11.5q-10 0 -15 2.5t-10 4.5q-9 4 -16 4q-8 0 -15 -7t-10 -14q6 -12 11 -32.5t5 -40.5q0 -30 -12 -58.5t-34.5 -50.5t-56.5 -35.5t-77 -13.5 q-23 0 -38.5 3.5t-31.5 8.5q-11 -8 -25.5 -22.5t-14.5 -34.5q0 -47 85 -48z" />
<glyph unicode="h" horiz-adv-x="529" d="M24 0v29l23 2q21 1 29 10t8 41v519q0 17 -3.5 25t-20.5 12l-30 6v26l109 43h24v-329q7 7 20 18.5t31 22.5t40.5 19t49.5 8q67 0 104 -41.5t37 -119.5v-209q0 -32 8 -41t29 -10l23 -2v-29h-199v29l23 2q21 1 29 10t8 41v196q0 60 -23.5 88t-68.5 28q-22 0 -40 -7.5 t-32 -17t-24 -20t-15 -16.5v-251q0 -32 8 -41t29 -10l23 -2v-29h-199z" />
<glyph unicode="i" horiz-adv-x="262" d="M129 580q-21 0 -36.5 15.5t-15.5 37.5t15.5 36.5t36.5 14.5q22 0 37 -14.5t15 -36.5t-15 -37.5t-37 -15.5zM34 0v29l23 2q21 1 29 10t8 41v258q0 17 -3.5 25t-20.5 12l-30 6v26l109 43h24v-370q0 -32 8 -41t29 -10l23 -2v-29h-199z" />
<glyph unicode="j" horiz-adv-x="255" d="M173 -28q0 -45 -13.5 -78.5t-34.5 -56t-47 -33.5t-50 -11q-28 0 -45.5 12.5t-17.5 36.5q0 12 9 25t32 13q17 0 25.5 -7.5t13.5 -17t9.5 -17t15.5 -7.5q6 0 10.5 4t7.5 16t4.5 35.5t1.5 62.5v391q0 17 -3.5 25t-20.5 12l-30 6v26l109 43h24v-480zM128 580 q-21 0 -36.5 15.5t-15.5 37.5t15.5 36.5t36.5 14.5q22 0 37 -14.5t15 -36.5t-15 -37.5t-37 -15.5z" />
<glyph unicode="k" horiz-adv-x="525" d="M24 0v29l23 2q21 1 29 10t8 41v519q0 17 -3.5 25t-20.5 12l-30 6v26l109 43h24v-473l130 118q16 14 20.5 20.5t4.5 14.5q0 6 -5.5 11t-22.5 7l-26 3v29h214v-29l-29 -5q-16 -3 -32.5 -11t-32 -19t-30.5 -23l-26 -24l-60 -55l163 -200q16 -19 37.5 -31.5t51.5 -16.5v-29 h-222v29l19 2q23 2 23 19q0 11 -8.5 23.5t-16.5 21.5l-105 131l-47 -42v-102q0 -32 8 -41t29 -10l23 -2v-29h-199z" />
<glyph unicode="l" horiz-adv-x="247" d="M24 0v29l23 2q21 1 29 10t8 41v519q0 17 -3.5 25t-20.5 12l-30 6v26l109 43h24v-631q0 -32 8 -41t29 -10l23 -2v-29h-199z" />
<glyph unicode="m" horiz-adv-x="789" d="M29 0v29l23 2q21 1 29 10t8 41v261q0 14 -3.5 21t-20.5 12l-30 9v24l103 43h24v-75q9 10 22.5 23t30.5 24.5t38.5 19.5t47.5 8q84 0 119 -74q25 29 61.5 51.5t87.5 22.5q63 0 99.5 -41.5t36.5 -119.5v-209q0 -32 8 -41t29 -10l23 -2v-29h-199v29l23 2q21 1 29 10t8 41 v190q0 64 -21 93t-69 29q-19 0 -35 -6t-29 -15t-23 -19t-16 -17q4 -20 4 -46v-209q0 -32 8 -41t29 -10l23 -2v-29h-199v29l23 2q21 1 29 10t8 41v190q0 64 -21 93t-69 29q-21 0 -37 -7.5t-28.5 -17t-20.5 -19.5l-14 -17v-251q0 -32 8 -41t29 -10l23 -2v-29h-199z" />
<glyph unicode="n" horiz-adv-x="525" d="M29 0v29l23 2q21 1 29 10t8 41v261q0 14 -3.5 21t-20.5 12l-30 9v24l103 43h24v-75q9 10 23 23.5t32 24.5t40 19t48 8q63 0 99.5 -41.5t36.5 -119.5v-209q0 -32 8 -41t29 -10l23 -2v-29h-199v29l23 2q21 1 29 10t8 41v190q0 64 -21 93t-69 29q-20 0 -37 -7.5t-30 -17 t-22.5 -20t-14.5 -16.5v-251q0 -32 8 -41t29 -10l23 -2v-29h-199z" />
<glyph unicode="o" horiz-adv-x="506" d="M170 8q-58 27 -95 83t-37 131q0 49 17 91t46.5 73t68.5 48.5t83 17.5t83 -17.5t68.5 -48.5t46.5 -73t17 -91q0 -50 -17 -92t-46.5 -73t-68.5 -48.5t-83 -17.5q-43 0 -83 17zM153 99q14 -29 38 -49t62 -20q37 0 61.5 20t38 49t19 62.5t5.5 60.5t-5.5 60.5t-19 62.5t-38 49 t-61.5 20q-38 0 -62 -20t-37.5 -49t-19 -62.5t-5.5 -60.5t5.5 -60.5t18.5 -62.5z" />
<glyph unicode="p" horiz-adv-x="512" d="M155 80q3 -5 11.5 -12.5t22 -15t31.5 -13t40 -5.5q27 0 51 13.5t41 38.5t27 59t10 76q0 38 -9 70t-25.5 55.5t-39.5 36.5t-51 13q-20 0 -38.5 -6t-33 -14.5t-24.5 -17.5t-13 -15v-263zM10 -207v29l29 3q21 2 29 10.5t8 40.5v467q0 14 -3.5 21t-20.5 12l-30 9v24l103 43 h24v-70q9 10 23 22.5t33.5 23t43.5 17.5t53 7q31 0 61.5 -14t55 -41.5t40 -67.5t15.5 -92q0 -62 -20 -107.5t-51.5 -75.5t-69 -45t-73.5 -15q-38 0 -66.5 8.5t-38.5 15.5v-142q0 -32 8 -41t29 -10l38 -3v-29h-220z" />
<glyph unicode="q" horiz-adv-x="532" d="M294 -207v29l42 3q20 2 28.5 10t8.5 39v166q-4 -6 -15 -14.5t-27.5 -16t-38.5 -13t-48 -5.5q-51 0 -89.5 16.5t-64.5 44.5t-39 66t-13 82q0 55 18.5 101t51 79.5t78 52.5t99.5 19q25 0 42.5 -2.5t30.5 -5.5l23 -6q10 -2 19 -2t19 10t16 20l28 -8q-2 -7 -6.5 -40t-4.5 -75 v-469q0 -31 8 -39t29 -10l38 -3v-29h-233zM373 316q0 51 -24 74t-72 23q-35 0 -63 -13.5t-47.5 -39t-30.5 -61t-11 -78.5q0 -46 11 -80.5t30 -58t44 -35.5t54 -12q18 0 37.5 6.5t35.5 20.5t26 36t10 54v164z" />
<glyph unicode="r" horiz-adv-x="346" d="M29 0v29l23 2q21 1 29 10t8 41v261q0 14 -3.5 21t-20.5 12l-30 9v24l103 43h24v-82q7 9 19.5 23t28.5 27t34 22.5t36 9.5q28 0 37 -14.5t9 -28.5q0 -20 -9.5 -35.5t-29.5 -15.5t-33 9.5t-29 9.5q-8 0 -16.5 -5.5t-16 -13t-14 -15.5t-10.5 -14v-247q0 -32 8 -41t29 -10 l23 -2v-29h-199z" />
<glyph unicode="s" horiz-adv-x="354" d="M40 124h27q3 -15 10.5 -32t19.5 -31t29.5 -23.5t40.5 -9.5q38 0 59.5 19t21.5 57q0 36 -17.5 54t-43.5 29l-69 27q-11 4 -24.5 13t-25 23t-19.5 33.5t-8 44.5q0 30 11.5 53t31 38.5t45 24t54.5 8.5q33 0 66 -7.5t48 -13.5v-99h-26q-15 42 -38.5 63t-60.5 21 q-26 0 -47.5 -17t-21.5 -46q0 -25 14.5 -41.5t40.5 -27.5l65 -27q14 -6 31 -15.5t31.5 -24.5t24 -36.5t9.5 -51.5q0 -41 -16 -68t-40 -42.5t-52.5 -21.5t-53.5 -6q-42 0 -75 7.5t-42 11.5v114z" />
<glyph unicode="t" horiz-adv-x="316" d="M149 116q0 -34 12.5 -53t46.5 -19q16 0 29 4.5t22.5 10.5t15.5 12.5t9 10.5l22 -20q-3 -5 -13 -16.5t-26.5 -23.5t-39.5 -21.5t-52 -9.5q-32 0 -52 9t-32 24t-16.5 34t-4.5 39v295h-58v29q26 11 43.5 23t31.5 31q9 13 16 28t13 37h33v-97h134v-49h-134v-278z" />
<glyph unicode="u" horiz-adv-x="521" d="M164 150q0 -21 3 -40t12.5 -33.5t26.5 -22.5t45 -8q24 0 43 9.5t32 22t20.5 24t9.5 16.5v251q0 26 -9 33.5t-28 9.5l-23 2v29h139v-362q0 -21 14 -24l47 -8v-26l-121 -32l-15 12v66l-14 -18q-11 -13 -29.5 -26.5t-45.5 -23.5t-63 -10q-38 0 -62 10.5t-37.5 28.5t-18.5 42 t-5 50v246q0 27 -8.5 34.5t-28.5 9.5l-23 2v29h139v-293z" />
<glyph unicode="v" horiz-adv-x="506" d="M246 -4l-151 342q-13 35 -30.5 53t-49.5 22l-10 1v29h234v-29l-17 -1q-26 -2 -39 -9t-13 -23q0 -10 3 -19l7 -21l97 -226l86 214q14 36 14 52t-13 23t-40 9l-15 1v29h192v-30h-6q-35 -2 -52.5 -23t-31.5 -53l-140 -341h-25z" />
<glyph unicode="w" horiz-adv-x="752" d="M240 -4l-147 345q-14 34 -31.5 51.5t-46.5 20.5l-10 1v29h233v-29l-17 -1q-50 -5 -50 -33q0 -9 1.5 -18t6.5 -21l97 -224l94 229q-10 26 -24 45t-46 22l-10 1v29h214v-29l-17 -1q-26 -2 -34 -9t-8 -23q0 -10 2 -19t7 -21l89 -232l76 220q7 19 9.5 31.5t2.5 20.5 q0 16 -13 23t-40 9l-15 1v29h184v-29q-35 -2 -53 -23.5t-29 -53.5l-124 -341h-29l-121 293l-121 -293h-30z" />
<glyph unicode="x" horiz-adv-x="503" d="M5 0v29l16 1q14 1 27 8t25.5 17.5t24 23t21.5 24.5l92 113l-99 141q-18 26 -41 39t-51 17l-8 1v29h226v-29l-17 -1q-14 -1 -24 -6.5t-10 -15.5q0 -8 9 -21.5t16 -22.5l49 -70l41 54q17 23 24 34.5t7 19.5q0 16 -10.5 21.5t-22.5 6.5l-15 1v29h187v-29l-13 -1 q-29 -2 -53 -22.5t-44 -46.5l-78 -101l115 -159q36 -48 89 -54l10 -1v-29h-248v30h32q20 0 29 6.5t9 16.5q0 8 -7 21t-14 22l-66 87l-64 -85q-9 -12 -15.5 -22t-6.5 -18q0 -16 12.5 -21.5t24.5 -6.5l20 -1v-29h-199z" />
<glyph unicode="y" horiz-adv-x="531" d="M230 -110q-24 -52 -46 -74.5t-52 -22.5q-14 0 -23 4.5t-14.5 11.5t-8 14t-2.5 13q0 15 11 29t33 14q14 0 21.5 -5.5t14.5 -5.5q12 0 23 24l60 130l-146 316q-16 35 -37 53t-53 22l-6 1v29h240v-29l-17 -1q-26 -2 -39 -9t-13 -23q0 -10 3.5 -19.5t8.5 -20.5l103 -222 l93 196q11 24 15 39.5t4 24.5q0 30 -55 34l-15 1v29h193v-29l-6 -1q-17 -3 -28.5 -8t-20 -14t-16 -22t-16.5 -31z" />
<glyph unicode="z" horiz-adv-x="446" d="M29 0v29l285 380h-161q-20 0 -34.5 -9.5t-25 -23.5t-17.5 -30.5t-12 -31.5h-31l19 129h364v-29l-291 -385h132q24 0 42.5 5t34.5 18t30 36t28 59h29l-14 -147h-378z" />
<glyph unicode="{" horiz-adv-x="335" d="M290 -158q-11 -5 -25.5 -9t-38.5 -4q-51 0 -80 25t-29 77q0 31 3.5 60.5t8 59.5t8 60.5t3.5 63.5q0 59 -20 78.5t-65 19.5v41q46 0 65.5 20t19.5 80q0 22 -3.5 49t-8 55t-8 56t-3.5 53q0 46 31.5 75.5t82.5 29.5q20 0 34 -3.5t25 -8.5l-10 -30q-18 5 -30 5 q-30 0 -49.5 -14.5t-19.5 -49.5q0 -22 3 -49l8 -58q4 -29 7.5 -58t3.5 -54q0 -31 -5 -51.5t-13.5 -33.5t-20 -20.5t-24.5 -12.5q13 -5 24.5 -12.5t20 -20.5t13.5 -33t5 -51q0 -26 -3.5 -59t-7.5 -67l-8 -66q-3 -32 -3 -54q0 -33 16.5 -47.5t52.5 -14.5q12 0 30 5z" />
<glyph unicode="|" horiz-adv-x="400" d="M174 -172v935h53v-935h-53z" />
<glyph unicode="}" horiz-adv-x="335" d="M45 -126q18 -5 30 -5q36 0 52.5 14.5t16.5 47.5q0 22 -4 54l-7 66q-4 34 -7.5 67t-3.5 59q0 31 5 51t13.5 33t20 20.5t24.5 12.5q-13 5 -24.5 12.5t-20 20.5t-13.5 33.5t-5 51.5q0 25 3.5 54t7.5 58l7 58q4 27 4 49q0 35 -19.5 49.5t-49.5 14.5q-12 0 -30 -5l-10 30 q11 5 25 8.5t34 3.5q51 0 82.5 -29.5t31.5 -75.5q0 -25 -3.5 -53t-8 -56t-8 -55t-3.5 -49q0 -60 19.5 -80t65.5 -20v-41q-45 0 -65 -19.5t-20 -78.5q0 -33 3.5 -63.5t8 -60.5t8 -59.5t3.5 -60.5q0 -52 -29 -77t-80 -25q-24 0 -38.5 4t-25.5 9z" />
<glyph unicode="~" horiz-adv-x="635" d="M93 279q0 18 5.5 40t19 41t36 32t57.5 13q29 0 58 -8t58 -18t58.5 -18t59.5 -8q26 0 37 14.5t16 37.5h45q0 -18 -5.5 -40t-19 -41t-36.5 -32t-57 -13q-29 0 -58 9l-59 18l-58 18q-29 8 -59 8q-26 0 -37 -15t-16 -38h-45z" />
<glyph unicode="&#xa1;" horiz-adv-x="229" d="M132 248q1 -11 3.5 -46.5t5.5 -83.5l7 -100l5.5 -100.5t4.5 -80t2 -41.5q0 -22 -15.5 -30.5t-33.5 -8.5q-8 0 -16.5 1t-16.5 5.5t-13 13.5t-5 24q0 11 2.5 46t6.5 81.5t9 99t9 98.5l7 80l5 42h33zM113 344q-23 0 -37.5 15.5t-14.5 35.5q0 23 14 37.5t38 14.5q22 0 37 -15 t15 -38t-16 -36.5t-36 -13.5z" />
<glyph unicode="&#xa2;" d="M183 -46l21 101q-34 11 -60 32.5t-44 50t-27 62t-9 69.5q0 49 17 92t47.5 75.5t71.5 51t89 18.5h8l19 94h30l-20 -97q31 -5 55 -16.5t40 -26t24 -30t8 -27.5q0 -19 -11.5 -30.5t-30.5 -11.5q-27 0 -38 15.5t-13 41.5q-3 37 -42 46l-72 -347q20 -7 49 -7q31 0 54.5 11 t39.5 25t25 28t12 20l28 -14q-3 -10 -14 -32t-32.5 -45t-54.5 -40.5t-79 -17.5q-23 0 -42 3l-19 -94h-30zM286 468q-24 0 -48 -11.5t-43.5 -34.5t-31.5 -58t-12 -81q0 -51 17.5 -90.5t50.5 -61.5l70 337h-3z" />
<glyph unicode="&#xa3;" d="M75 275v34h104l10 51q5 26 12 55q12 56 30 103t43 81t56.5 53t69.5 19q42 0 73.5 -17.5t31.5 -47.5q0 -17 -11 -28.5t-28 -11.5q-21 0 -32.5 10.5t-19.5 22.5l-17 23q-8 10 -22 10q-16 0 -28.5 -20.5t-24 -56.5t-21.5 -84t-20 -103l-11 -59h159v-34h-166q-11 -48 -25 -94 t-34 -88q34 -11 70.5 -20.5t78.5 -9.5q38 0 61 8.5t36 20t18 23.5t7 19h31q0 -30 -10.5 -57.5t-29.5 -48.5t-46 -33.5t-60 -12.5q-56 0 -100.5 22t-80.5 46q-23 -31 -51 -49t-65 -18q-12 0 -25 3t-24 10.5t-18 19t-7 29.5q0 32 27 54t69 22q24 0 54 -8q8 30 15 71l18 91h-97 zM104 32q15 17 25 46q-21 10 -42 10q-20 0 -33.5 -10t-13.5 -29q0 -17 9.5 -24t20.5 -7q20 0 34 14z" />
<glyph unicode="&#xa4;" horiz-adv-x="577" d="M96 107l-48 48l67 66q-21 26 -31.5 58.5t-10.5 67.5q0 73 42 127l-67 65l48 48l66 -67q26 21 58.5 31.5t67.5 10.5q71 0 127 -41l65 66l48 -48l-67 -66q42 -53 42 -126q0 -70 -41 -126l66 -66l-48 -48l-66 67q-53 -42 -126 -42q-72 0 -126 42zM186 240q20 -20 46 -32 t56 -12t56 12t46 32.5t31.5 48t11.5 58.5t-11.5 58.5t-31.5 48t-46 32.5t-56 12t-56 -12t-46 -32.5t-31.5 -48t-11.5 -58.5t11.5 -58.5t31.5 -48.5z" />
<glyph unicode="&#xa5;" d="M117 0v31l46 3q25 2 34.5 14t9.5 41v104h-155v41h155v68h-155v41h139l-113 198q-25 44 -45 61t-46 19l-29 3v31h277v-31l-36 -3q-38 -3 -38 -30q0 -9 5 -20.5t14 -27.5l102 -176l119 197q12 16 12 31q0 24 -32 26l-36 3v31h214v-31l-27 -3q-25 -3 -41.5 -15.5 t-32.5 -38.5l-142 -224h142v-41h-155v-68h155v-41h-155v-104q0 -30 9.5 -41.5t35.5 -13.5l40 -3v-31h-271z" />
<glyph unicode="&#xa6;" horiz-adv-x="400" d="M174 -171v372h51v-372h-51zM174 392v372h51v-372h-51z" />
<glyph unicode="&#xa7;" horiz-adv-x="525" d="M348 175q-8 -7 -16 -12q46 -26 71 -57t25 -74q0 -32 -14.5 -57.5t-39.5 -43.5t-59 -27.5t-73 -9.5t-69 9.5t-50.5 23t-31 29.5t-10.5 29q0 20 11.5 29.5t25.5 9.5q18 0 27.5 -7t16 -17.5t12 -23t14 -23t23 -17.5t38.5 -7q45 0 70.5 19t25.5 51q0 36 -25.5 62t-83.5 54 q-37 18 -66.5 34t-50.5 34t-32 41.5t-11 56.5q0 30 12.5 55t31 45t38.5 34.5t35 23.5q-55 28 -77.5 56.5t-22.5 70.5q0 33 15.5 60t41 46t58 29t67.5 10q42 0 73 -10t51.5 -24.5t30.5 -30t10 -27.5q0 -20 -11.5 -29.5t-25.5 -9.5q-18 0 -27.5 7.5t-16 18t-11.5 23.5 t-13.5 23.5t-23 18t-39.5 7.5q-42 0 -69 -20t-27 -52q0 -36 25.5 -61t83.5 -53l67 -33q29 -15 50 -32.5t32 -40t11 -55.5q0 -21 -7 -41t-18 -38t-25 -33.5t-29 -27.5q-10 -8 -18 -16zM188 239q40 -31 110 -61q31 22 52.5 49.5t21.5 69.5q0 39 -38.5 68t-107.5 59 q-15 -11 -28.5 -22.5t-24.5 -24.5t-17.5 -28t-6.5 -33q0 -46 39 -77z" />
<glyph unicode="&#xa8;" horiz-adv-x="500" d="M306 568q-13 13 -13 33t13.5 33t33.5 13t33 -13t13 -33t-13 -33t-33 -13q-21 0 -34 13zM126 568q-13 13 -13 33t13.5 33t33.5 13t33 -13t13 -33t-13 -33t-33 -13q-21 0 -34 13z" />
<glyph unicode="&#xa9;" horiz-adv-x="843" d="M167 85q-49 49 -77.5 114.5t-28.5 140.5t28.5 140.5t78 114.5t115.5 77.5t141 28.5t140.5 -28.5t114.5 -77.5t77.5 -114.5t28.5 -140.5t-28.5 -140.5t-77.5 -114t-114.5 -77t-140.5 -28.5t-140.5 28.5t-116.5 76.5zM199 112q43 -45 101 -70t124 -25t124 25.5t101.5 70 t68.5 103t25 124.5t-25 125t-68.5 103t-101.5 70t-124 26t-124 -26t-101 -70t-68 -103t-25 -125t25 -124.5t68 -103.5zM552 160l-6 21q0 5 -5 5q-8 0 -14 -6q-12 -6 -36 -17t-72 -11q-38 0 -73 12.5t-61 36.5t-41.5 60t-15.5 83q0 40 15.5 75.5t42 62.5t63 42.5t78.5 15.5 q31 0 55 -7.5t38 -15.5q15 -9 20 -9q4 0 4.5 2.5t1.5 4.5l4 19h25l4 -133h-25q-3 11 -9.5 30t-20.5 37.5t-37 32t-60 13.5q-35 0 -58.5 -14.5t-38.5 -38.5t-21.5 -54.5t-6.5 -62.5q0 -30 7 -60t22 -53t40 -37.5t61 -14.5q49 0 78 22t42 79h24v-120h-24z" />
<glyph unicode="&#xaa;" horiz-adv-x="405" d="M297 405q0 -18 3 -29.5t14 -11.5q6 0 11 5t7 8l16 -17q-3 -6 -17.5 -19.5t-40.5 -13.5q-27 0 -38 12.5t-16 27.5q-11 -11 -36.5 -25.5t-62.5 -14.5q-36 0 -60 19.5t-24 54.5q0 30 22 56t77 50l82 35v53q0 26 -13.5 35t-26.5 9q-10 0 -22 -2t-23 -7t-18.5 -13.5 t-7.5 -21.5q0 -17 -6.5 -30.5t-29.5 -13.5q-12 0 -20 8t-8 19q0 16 16 34t55 38q25 12 45.5 17t46.5 5q35 0 55 -18t20 -51v-198zM165 476q-28 -14 -38 -30t-10 -30q0 -18 11.5 -33t36.5 -15q21 0 40.5 10t28.5 20v112z" />
<glyph unicode="&#xab;" horiz-adv-x="383" d="M177 53l-134 157q-5 8 -5 16t5 15l132 155l20 -13l-84 -157l87 -160zM327 53l-134 157q-5 8 -5 16t5 15l132 155l20 -13l-84 -157l87 -160z" />
<glyph unicode="&#xac;" horiz-adv-x="517" d="M75 304v42h366v-140h-43v98h-323z" />
<glyph unicode="&#xad;" horiz-adv-x="377" d="M55 240v72h267v-72h-267z" />
<glyph unicode="&#xae;" horiz-adv-x="843" d="M167 85q-49 49 -77.5 114.5t-28.5 140.5t28.5 140.5t78 114.5t115.5 77.5t141 28.5t140.5 -28.5t114.5 -77.5t77.5 -114.5t28.5 -140.5t-28.5 -140.5t-77.5 -114t-114.5 -77t-140.5 -28.5t-140.5 28.5t-116.5 76.5zM199 112q43 -45 101 -70t124 -25t124 25.5t101.5 70 t68.5 103t25 124.5t-25 125t-68.5 103t-101.5 70t-124 26t-124 -26t-101 -70t-68 -103t-25 -125t25 -124.5t68 -103.5zM258 160v22l28 2q11 1 15.5 5t4.5 20v275q0 17 -4.5 20.5t-16.5 5.5l-27 3v21h170q24 0 48.5 -5t45 -17t33 -31.5t12.5 -48.5q0 -25 -11 -43t-26.5 -30.5 t-31 -19.5t-24.5 -10l12 -9l12 -12t16 -18.5t22 -30.5l19 -31q10 -17 20 -27q7 -8 16.5 -13t31.5 -6v-22h-98l-56 90q-15 24 -40.5 46t-58.5 24v-114q0 -13 3.5 -16.5t15.5 -5.5q6 -1 12 -1.5t16 -0.5v-22h-159zM370 347h31q14 0 31.5 4t32.5 14t25 25.5t10 38.5 q0 45 -25 62t-68 17h-13q-17 0 -20.5 -10.5t-3.5 -23.5v-127z" />
<glyph unicode="&#xaf;" horiz-adv-x="500" d="M126 574v56h247v-56h-247z" />
<glyph unicode="&#xb0;" horiz-adv-x="280" d="M140 520q-42 0 -70.5 28.5t-28.5 70.5t28.5 71t70.5 29q21 0 39 -8t31.5 -21.5t21.5 -31.5t8 -39q0 -42 -29 -70.5t-71 -28.5zM77 619q0 -27 18 -45t45 -18q28 0 46 18t18 45q0 28 -18 46t-46 18q-27 0 -45 -18t-18 -46z" />
<glyph unicode="&#xb1;" d="M237 143v161h-161v42h161v161h45v-161h160v-42h-160v-161h-45zM76 1v42h366v-42h-366z" />
<glyph unicode="&#xb2;" horiz-adv-x="350" d="M38 260q4 31 18.5 58t33 50.5t39 44t35.5 37.5q29 31 47.5 58.5t18.5 56.5q0 26 -13 36.5t-31 10.5q-20 0 -39.5 -9.5t-35.5 -23t-28 -27.5t-17 -22l-29 11q12 20 28.5 41t37.5 38.5t46.5 28.5t55.5 11q19 0 37 -5t32.5 -15t23 -25.5t8.5 -36.5q0 -41 -27.5 -75.5 t-70.5 -73.5l-58 -53q-30 -28 -50 -67h131q24 0 39 18t22 34l29 -7l-46 -123h-29q0 13 -5.5 21t-27.5 8h-175z" />
<glyph unicode="&#xb3;" horiz-adv-x="350" d="M120 458q12 7 27.5 19t30 27.5t24 33.5t9.5 36q0 36 -44 36q-21 0 -44 -15t-47 -38l-24 21l26 26q15 15 32.5 27t37 20.5t42.5 8.5q38 0 61.5 -16.5t23.5 -46.5q0 -14 -6.5 -28t-16.5 -27t-22 -26l-23 -23q14 -2 32 -8.5t34 -19.5t27 -33t11 -48q0 -24 -11 -47.5t-31 -42 t-48.5 -30t-62.5 -11.5q-23 0 -45 5t-39.5 14t-28.5 21t-11 26t9.5 24t24.5 10q20 0 28.5 -11t14.5 -24q7 -14 17 -25.5t30 -11.5q37 0 60 25t23 63q0 41 -23 57t-52 16q-6 0 -15 -1t-22 -4z" />
<glyph unicode="&#xb4;" horiz-adv-x="500" d="M204 496l76 178q6 13 20 13q11 0 22 -7q7 -4 12.5 -10.5t5.5 -14.5t-4 -12l-111 -158z" />
<glyph unicode="&#xb5;" horiz-adv-x="515" d="M166 150q0 -22 2.5 -42t10.5 -35t23 -24t41 -9q20 0 37 6.5t30 16.5t22 20.5t14 18.5v341h77v-349q0 -23 4 -40t21 -17q9 0 16 5.5t9 9.5l18 -19q-2 -3 -7.5 -10t-15 -14t-22.5 -12.5t-29 -5.5q-38 0 -52 18.5t-18 41.5q-8 -9 -19 -19.5t-26 -19.5t-35 -15t-46 -6 q-40 0 -65.5 15t-35.5 41q0 -30 6 -61t14 -60l13 -52q6 -25 6 -43q0 -17 -9 -32t-32 -15q-25 0 -34.5 19t-9.5 54q0 24 2 56t4.5 68t4.5 73.5t2 70.5v318h79v-293z" />
<glyph unicode="&#xb6;" horiz-adv-x="579" d="M293 -96v379h-56q-48 0 -86 14.5t-65 40.5t-41.5 61.5t-14.5 77.5q0 94 61.5 145t170.5 51h291v-32l-41 -3q-25 -2 -35.5 -12t-10.5 -36v-686h-48v734h-77v-734h-48z" />
<glyph unicode="&#xb7;" horiz-adv-x="260" d="M130 279q-24 0 -40.5 16.5t-16.5 40.5t16.5 40.5t40.5 16.5q23 0 39.5 -16.5t16.5 -40.5t-16.5 -40.5t-39.5 -16.5z" />
<glyph unicode="&#xb8;" horiz-adv-x="500" d="M197 -164q11 -7 21.5 -11t26.5 -4q24 0 40 10t16 33q0 21 -12.5 29.5t-28.5 8.5q-8 0 -15 -1t-28 -6l-8 8l39 97h42l-26 -63q15 3 29 3q28 0 48.5 -18t20.5 -50q0 -24 -11.5 -41t-28.5 -27t-37 -14.5t-36 -4.5q-17 0 -36 5.5t-30 15.5z" />
<glyph unicode="&#xb9;" horiz-adv-x="350" d="M73 260v28l41 3q14 2 19 8t5 24v212q0 18 -4 26t-25 10l-34 2v23q12 2 27 6.5t30 11.5t28.5 16.5t23.5 21.5h22v-329q0 -19 5.5 -24.5t19.5 -7.5l42 -3v-28h-200z" />
<glyph unicode="&#xba;" horiz-adv-x="442" d="M158 344q-45 19 -73.5 62t-28.5 100q0 37 13.5 69t36 55.5t52.5 36.5t63 13t62.5 -13t52 -36.5t36 -55.5t13.5 -69q0 -38 -13.5 -70t-36 -55.5t-52 -36.5t-62.5 -13q-34 0 -63 13zM147 413q11 -22 29 -37t45 -15t44.5 15t28 37t14.5 47.5t4 45.5t-4 45t-14.5 47t-28 37 t-44.5 15t-45 -15t-28.5 -37t-14.5 -47t-4 -45t4 -45.5t14 -47.5z" />
<glyph unicode="&#xbb;" horiz-adv-x="383" d="M37 66l87 160l-84 157l20 13l132 -155q5 -7 5 -15t-5 -16l-134 -157zM187 66l87 160l-84 157l20 13l132 -155q5 -7 5 -15t-5 -16l-134 -157z" />
<glyph unicode="&#xbc;" horiz-adv-x="880" d="M83 260v28l41 3q14 2 19 8t5 24v212q0 18 -4 26t-25 10l-34 2v23q12 2 27 6.5t30 11.5t28.5 16.5t23.5 21.5h22v-329q0 -19 5.5 -24.5t19.5 -7.5l42 -3v-28h-200zM205 0l418 653h54l-418 -653h-54zM500 120v25l204 248h41v-233h56v-40h-56v-119h-63v119h-182zM559 160 h123v148z" />
<glyph unicode="&#xbd;" horiz-adv-x="880" d="M82 260v28l41 3q14 2 19 8t5 24v212q0 18 -4 26t-25 10l-34 2v23q12 2 27 6.5t30 11.5t28.5 16.5t23.5 21.5h22v-329q0 -19 5.5 -24.5t19.5 -7.5l42 -3v-28h-200zM196 0l418 653h54l-418 -653h-54zM523 1q4 31 18.5 58t33 50.5t39 44t35.5 37.5q29 31 47.5 58.5 t18.5 56.5q0 26 -13 36.5t-31 10.5q-20 0 -39.5 -9.5t-35.5 -23t-28 -27.5t-17 -22l-29 11q12 20 28.5 41t37.5 38.5t46.5 28.5t55.5 11q19 0 37 -5t32.5 -15t23 -25.5t8.5 -36.5q0 -41 -27.5 -75.5t-70.5 -73.5l-58 -53q-30 -28 -50 -67h131q24 0 39 18t22 34l29 -7 l-46 -123h-29q0 13 -5.5 21t-27.5 8h-175z" />
<glyph unicode="&#xbe;" horiz-adv-x="880" d="M156 458q12 7 27.5 19t30 27.5t24 33.5t9.5 36q0 36 -44 36q-21 0 -44 -15t-47 -38l-24 21l26 26q15 15 32.5 27t37 20.5t42.5 8.5q38 0 61.5 -16.5t23.5 -46.5q0 -14 -6.5 -28t-16.5 -27t-22 -26l-23 -23q14 -2 32 -8.5t34 -19.5t27 -33t11 -48q0 -24 -11 -47.5t-31 -42 t-48.5 -30t-62.5 -11.5q-23 0 -45 5t-39.5 14t-28.5 21t-11 26t9.5 24t24.5 10q20 0 28.5 -11t14.5 -24q7 -14 17 -25.5t30 -11.5q37 0 60 25t23 63q0 41 -23 57t-52 16q-6 0 -15 -1t-22 -4zM214 0l418 653h54l-418 -653h-54zM507 120v25l204 248h41v-233h56v-40h-56v-119 h-63v119h-182zM566 160h123v148z" />
<glyph unicode="&#xbf;" horiz-adv-x="445" d="M346 91q0 -12 -8 -20.5t-33 -8.5q-23 0 -49.5 -2.5t-49 -11.5t-38 -26t-15.5 -45q0 -12 1.5 -25.5t9 -27t22.5 -26.5t42 -24q16 -6 37.5 -13t41.5 -16.5t34 -22.5t14 -31t-13 -25.5t-27 -7.5q-23 0 -50.5 11t-55.5 29q-48 30 -75.5 78.5t-27.5 102.5q0 69 44 108.5 t132 42.5q11 0 15 6.5t4 16.5v107h45v-169zM322 341q-20 0 -35.5 15.5t-15.5 38.5q0 21 15.5 37t35.5 16q23 0 37.5 -16t14.5 -37q0 -23 -14.5 -38.5t-37.5 -15.5z" />
<glyph unicode="&#xc0;" horiz-adv-x="734" d="M4 0v32l25 3q26 3 42.5 23t28.5 49l238 572h49l254 -588q11 -25 21.5 -39.5t36.5 -16.5l31 -3v-32h-284v32l32 3q49 3 49 38q0 19 -11 46l-47 112h-267l-48 -119q-5 -14 -8.5 -25.5t-3.5 -19.5q0 -18 11 -24t29 -8l28 -3v-32h-206zM220 273h233l-122 275zM261 820 q-10 7 -10 16q0 13 9 24q4 6 11 11.5t14 5.5q8 0 16 -8l136 -137l-14 -18z" />
<glyph unicode="&#xc1;" horiz-adv-x="734" d="M4 0v32l25 3q26 3 42.5 23t28.5 49l238 572h49l254 -588q11 -25 21.5 -39.5t36.5 -16.5l31 -3v-32h-284v32l32 3q49 3 49 38q0 19 -11 46l-47 112h-267l-48 -119q-5 -14 -8.5 -25.5t-3.5 -19.5q0 -18 11 -24t29 -8l28 -3v-32h-206zM220 273h233l-122 275zM289 714l-14 18 l136 137q8 8 16 8q7 0 14 -5.5t11 -11.5q9 -11 9 -24q0 -9 -10 -16z" />
<glyph unicode="&#xc2;" horiz-adv-x="734" d="M4 0v32l25 3q26 3 42.5 23t28.5 49l238 572h49l254 -588q11 -25 21.5 -39.5t36.5 -16.5l31 -3v-32h-284v32l32 3q49 3 49 38q0 19 -11 46l-47 112h-267l-48 -119q-5 -14 -8.5 -25.5t-3.5 -19.5q0 -18 11 -24t29 -8l28 -3v-32h-206zM220 273h233l-122 275zM227 729 l102 117q6 8 13.5 14.5t17.5 6.5t16 -7l15 -14l101 -117l-16 -16l-116 84l-116 -84z" />
<glyph unicode="&#xc3;" horiz-adv-x="734" d="M4 0v32l25 3q26 3 42.5 23t28.5 49l238 572h49l254 -588q11 -25 21.5 -39.5t36.5 -16.5l31 -3v-32h-284v32l32 3q49 3 49 38q0 19 -11 46l-47 112h-267l-48 -119q-5 -14 -8.5 -25.5t-3.5 -19.5q0 -18 11 -24t29 -8l28 -3v-32h-206zM220 273h233l-122 275zM192 743 q0 15 4.5 32.5t15 32t28 24.5t43.5 10q23 0 44 -6.5t42 -14t42 -13.5t44 -6q20 0 28 12.5t13 30.5h34q0 -15 -4.5 -32.5t-15 -32t-28 -24.5t-43.5 -10q-23 0 -44 6.5t-42 14t-42 14t-44 6.5q-20 0 -28 -13t-13 -31h-34z" />
<glyph unicode="&#xc4;" horiz-adv-x="734" d="M4 0v32l25 3q26 3 42.5 23t28.5 49l238 572h49l254 -588q11 -25 21.5 -39.5t36.5 -16.5l31 -3v-32h-284v32l32 3q49 3 49 38q0 19 -11 46l-47 112h-267l-48 -119q-5 -14 -8.5 -25.5t-3.5 -19.5q0 -18 11 -24t29 -8l28 -3v-32h-206zM220 273h233l-122 275zM417 754 q-13 13 -13 33t13.5 33t33.5 13t33 -13t13 -33t-13 -33t-33 -13q-21 0 -34 13zM237 754q-13 13 -13 33t13.5 33t33.5 13t33 -13t13 -33t-13 -33t-33 -13q-21 0 -34 13z" />
<glyph unicode="&#xc5;" horiz-adv-x="734" d="M4 0v32l25 3q26 3 42.5 23t28.5 49l238 572h49l254 -588q11 -25 21.5 -39.5t36.5 -16.5l31 -3v-32h-284v32l32 3q49 3 49 38q0 19 -11 46l-47 112h-267l-48 -119q-5 -14 -8.5 -25.5t-3.5 -19.5q0 -18 11 -24t29 -8l28 -3v-32h-206zM220 273h233l-122 275zM364 715 q-35 0 -59 24t-24 59t24 59t59 24t59 -24t24 -59t-24 -59t-59 -24zM312 798q0 -23 14.5 -37.5t37.5 -14.5t37 14.5t14 37.5t-14 37t-37 14t-37.5 -14t-14.5 -37z" />
<glyph unicode="&#xc6;" horiz-adv-x="1012" d="M5 0v32l25 3q26 3 46.5 21t38.5 51l262 481q6 12 6 20q0 13 -11 20.5t-28 9.5l-36 3v32h606l51 -148l-30 -13q-13 22 -27.5 43.5t-37 39t-56.5 28.5t-85 11h-129v-274h76q65 0 90.5 28.5t29.5 85.5h31v-270h-32q0 35 -7.5 58t-22.5 36.5t-38 19t-53 5.5h-74v-216 q0 -33 12.5 -51t53.5 -18h76q29 0 58.5 2.5t57.5 18.5q46 25 69 59.5t38 66.5l30 -9l-46 -176h-534v32l41 3q26 2 36 11t10 40v237h-211l-115 -211q-9 -17 -15 -30t-6 -23t8 -16t28 -8l28 -3v-32h-214zM311 360h191v269h-46z" />
<glyph unicode="&#xc7;" horiz-adv-x="722" d="M347 -165q11 -7 20.5 -11.5t27.5 -4.5q24 0 40 11t16 34q0 21 -12.5 29.5t-28.5 8.5q-8 0 -15 -1t-28 -6l-8 8l32 80q-74 1 -137 24.5t-109 67.5t-72.5 108.5t-26.5 147.5q0 73 27 138.5t75 114.5t112.5 77.5t139.5 28.5q49 0 87 -9t65.5 -20.5t45 -22t25.5 -13.5l15 47 h31l10 -228h-31q-6 22 -18.5 56.5t-39.5 67.5t-72.5 57t-117.5 24q-62 0 -106 -26.5t-72.5 -70.5t-42 -101.5t-13.5 -119.5q0 -54 13 -108.5t41.5 -98t74 -71t110.5 -27.5q50 0 89 10t68.5 32t50 57.5t33.5 86.5h31v-209h-32l-17 52q-11 -8 -29.5 -18.5t-44 -21t-56.5 -19 t-65 -11.5l-19 -48q15 3 29 3q28 0 48.5 -18t20.5 -50q0 -24 -11.5 -41t-28.5 -27t-37 -14.5t-36 -4.5q-17 0 -36 5.5t-30 15.5z" />
<glyph unicode="&#xc8;" horiz-adv-x="646" d="M34 0v32l41 3q26 2 36 11t10 40v501q0 31 -10 40t-36 11l-41 3v32h499l51 -148l-30 -13q-13 22 -27.5 43.5t-37 39t-56.5 28.5t-85 11h-129v-274h76q65 0 90.5 28.5t29.5 85.5h31v-270h-32q0 35 -7.5 58t-22.5 36.5t-38 19t-53 5.5h-74v-216q0 -33 12.5 -51t53.5 -18h76 q29 0 58.5 2.5t57.5 18.5q46 25 69 59.5t38 66.5l30 -9l-46 -176h-534zM205 820q-10 7 -10 16q0 13 9 24q4 6 11 11.5t14 5.5q8 0 16 -8l136 -137l-14 -18z" />
<glyph unicode="&#xc9;" horiz-adv-x="646" d="M34 0v32l41 3q26 2 36 11t10 40v501q0 31 -10 40t-36 11l-41 3v32h499l51 -148l-30 -13q-13 22 -27.5 43.5t-37 39t-56.5 28.5t-85 11h-129v-274h76q65 0 90.5 28.5t29.5 85.5h31v-270h-32q0 35 -7.5 58t-22.5 36.5t-38 19t-53 5.5h-74v-216q0 -33 12.5 -51t53.5 -18h76 q29 0 58.5 2.5t57.5 18.5q46 25 69 59.5t38 66.5l30 -9l-46 -176h-534zM257 714l-14 18l136 137q8 8 16 8q7 0 14 -5.5t11 -11.5q9 -11 9 -24q0 -9 -10 -16z" />
<glyph unicode="&#xca;" horiz-adv-x="646" d="M34 0v32l41 3q26 2 36 11t10 40v501q0 31 -10 40t-36 11l-41 3v32h499l51 -148l-30 -13q-13 22 -27.5 43.5t-37 39t-56.5 28.5t-85 11h-129v-274h76q65 0 90.5 28.5t29.5 85.5h31v-270h-32q0 35 -7.5 58t-22.5 36.5t-38 19t-53 5.5h-74v-216q0 -33 12.5 -51t53.5 -18h76 q29 0 58.5 2.5t57.5 18.5q46 25 69 59.5t38 66.5l30 -9l-46 -176h-534zM195 729l102 117q6 8 13.5 14.5t17.5 6.5t16 -7l15 -14l101 -117l-16 -16l-116 84l-116 -84z" />
<glyph unicode="&#xcb;" horiz-adv-x="646" d="M34 0v32l41 3q26 2 36 11t10 40v501q0 31 -10 40t-36 11l-41 3v32h499l51 -148l-30 -13q-13 22 -27.5 43.5t-37 39t-56.5 28.5t-85 11h-129v-274h76q65 0 90.5 28.5t29.5 85.5h31v-270h-32q0 35 -7.5 58t-22.5 36.5t-38 19t-53 5.5h-74v-216q0 -33 12.5 -51t53.5 -18h76 q29 0 58.5 2.5t57.5 18.5q46 25 69 59.5t38 66.5l30 -9l-46 -176h-534zM385 754q-13 13 -13 33t13.5 33t33.5 13t33 -13t13 -33t-13 -33t-33 -13q-21 0 -34 13zM205 754q-13 13 -13 33t13.5 33t33.5 13t33 -13t13 -33t-13 -33t-33 -13q-21 0 -34 13z" />
<glyph unicode="&#xcc;" horiz-adv-x="346" d="M34 0v32l41 3q26 2 36 13.5t10 42.5v491q0 31 -10 42.5t-36 13.5l-41 3v32h278v-32l-47 -3q-26 -2 -36 -13.5t-10 -42.5v-491q0 -31 10 -42.5t36 -13.5l47 -3v-32h-278zM44 820q-10 7 -10 16q0 13 9 24q4 6 11 11.5t14 5.5q8 0 16 -8l136 -137l-14 -18z" />
<glyph unicode="&#xcd;" horiz-adv-x="346" d="M34 0v32l41 3q26 2 36 13.5t10 42.5v491q0 31 -10 42.5t-36 13.5l-41 3v32h278v-32l-47 -3q-26 -2 -36 -13.5t-10 -42.5v-491q0 -31 10 -42.5t36 -13.5l47 -3v-32h-278zM121 714l-14 18l136 137q8 8 16 8q7 0 14 -5.5t11 -11.5q9 -11 9 -24q0 -9 -10 -16z" />
<glyph unicode="&#xce;" horiz-adv-x="346" d="M34 0v32l41 3q26 2 36 13.5t10 42.5v491q0 31 -10 42.5t-36 13.5l-41 3v32h278v-32l-47 -3q-26 -2 -36 -13.5t-10 -42.5v-491q0 -31 10 -42.5t36 -13.5l47 -3v-32h-278zM40 729l102 117q6 8 13.5 14.5t17.5 6.5t16 -7l15 -14l101 -117l-16 -16l-116 84l-116 -84z" />
<glyph unicode="&#xcf;" horiz-adv-x="346" d="M34 0v32l41 3q26 2 36 13.5t10 42.5v491q0 31 -10 42.5t-36 13.5l-41 3v32h278v-32l-47 -3q-26 -2 -36 -13.5t-10 -42.5v-491q0 -31 10 -42.5t36 -13.5l47 -3v-32h-278zM231 754q-13 13 -13 33t13.5 33t33.5 13t33 -13t13 -33t-13 -33t-33 -13q-21 0 -34 13zM51 754 q-13 13 -13 33t13.5 33t33.5 13t33 -13t13 -33t-13 -33t-33 -13q-21 0 -34 13z" />
<glyph unicode="&#xd0;" horiz-adv-x="771" d="M34 0v32l41 3q26 2 36 11t10 40v239h-87v55h87v207q0 31 -10 40t-36 11l-41 3v32h291q78 0 138 -13t106 -38q43 -24 73 -55t48.5 -67.5t26.5 -76.5t8 -82q0 -74 -18.5 -127.5t-50 -91.5t-74 -62t-90.5 -37t-99.5 -18t-101.5 -5h-257zM219 122q0 -44 19 -64t72 -20 q57 0 111 11t96.5 43.5t68 92t25.5 157.5q0 53 -9.5 93t-25.5 69.5t-37.5 50.5t-45.5 36q-42 27 -88 35t-104 8h-82v-254h191v-55h-191v-203z" />
<glyph unicode="&#xd1;" horiz-adv-x="798" d="M34 0v32l39 3q26 2 36 13.5t10 42.5v502q-19 19 -37 32.5t-43 16.5v31h160l430 -519v428q0 31 -10 42.5t-36 13.5l-41 3v32h228v-32l-45 -3q-26 -2 -36 -13.5t-10 -42.5v-590h-42l-468 566v-467q0 -31 10 -42.5t36 -13.5l47 -3v-32h-228zM243 743q0 15 4.5 32.5t15 32 t28 24.5t43.5 10q23 0 44 -6.5t42 -14t42 -13.5t44 -6q20 0 28 12.5t13 30.5h34q0 -15 -4.5 -32.5t-15 -32t-28 -24.5t-43.5 -10q-23 0 -44 6.5t-42 14t-42 14t-44 6.5q-20 0 -28 -13t-13 -31h-34z" />
<glyph unicode="&#xd2;" horiz-adv-x="782" d="M202 137q26 -48 70.5 -80.5t118.5 -32.5q49 0 85 15t61.5 40.5t42 58t26 67t13 69t3.5 62.5q0 29 -3.5 63t-13 69t-26 67.5t-42 58t-61.5 40.5t-85 15t-85 -15t-61.5 -40.5t-42 -58t-26 -67.5t-13 -69t-3.5 -63q0 -44 9 -96.5t33 -102.5zM154 80q-48 48 -78 112.5 t-30 143.5t30 144.5t78.5 112t110.5 72t126 25.5t126 -25.5t110.5 -72t78.5 -112t30 -144.5t-30 -144t-78.5 -111.5t-110.5 -72t-126 -25.5t-126 25.5t-111 71.5zM281 820q-10 7 -10 16q0 13 9 24q4 6 11 11.5t14 5.5q8 0 16 -8l136 -137l-14 -18z" />
<glyph unicode="&#xd3;" horiz-adv-x="782" d="M202 137q26 -48 70.5 -80.5t118.5 -32.5q49 0 85 15t61.5 40.5t42 58t26 67t13 69t3.5 62.5q0 29 -3.5 63t-13 69t-26 67.5t-42 58t-61.5 40.5t-85 15t-85 -15t-61.5 -40.5t-42 -58t-26 -67.5t-13 -69t-3.5 -63q0 -44 9 -96.5t33 -102.5zM154 80q-48 48 -78 112.5 t-30 143.5t30 144.5t78.5 112t110.5 72t126 25.5t126 -25.5t110.5 -72t78.5 -112t30 -144.5t-30 -144t-78.5 -111.5t-110.5 -72t-126 -25.5t-126 25.5t-111 71.5zM333 714l-14 18l136 137q8 8 16 8q7 0 14 -5.5t11 -11.5q9 -11 9 -24q0 -9 -10 -16z" />
<glyph unicode="&#xd4;" horiz-adv-x="782" d="M202 137q26 -48 70.5 -80.5t118.5 -32.5q49 0 85 15t61.5 40.5t42 58t26 67t13 69t3.5 62.5q0 29 -3.5 63t-13 69t-26 67.5t-42 58t-61.5 40.5t-85 15t-85 -15t-61.5 -40.5t-42 -58t-26 -67.5t-13 -69t-3.5 -63q0 -44 9 -96.5t33 -102.5zM154 80q-48 48 -78 112.5 t-30 143.5t30 144.5t78.5 112t110.5 72t126 25.5t126 -25.5t110.5 -72t78.5 -112t30 -144.5t-30 -144t-78.5 -111.5t-110.5 -72t-126 -25.5t-126 25.5t-111 71.5zM257 729l102 117q6 8 13.5 14.5t17.5 6.5t16 -7l15 -14l101 -117l-16 -16l-116 84l-116 -84z" />
<glyph unicode="&#xd5;" horiz-adv-x="782" d="M202 137q26 -48 70.5 -80.5t118.5 -32.5q49 0 85 15t61.5 40.5t42 58t26 67t13 69t3.5 62.5q0 29 -3.5 63t-13 69t-26 67.5t-42 58t-61.5 40.5t-85 15t-85 -15t-61.5 -40.5t-42 -58t-26 -67.5t-13 -69t-3.5 -63q0 -44 9 -96.5t33 -102.5zM154 80q-48 48 -78 112.5 t-30 143.5t30 144.5t78.5 112t110.5 72t126 25.5t126 -25.5t110.5 -72t78.5 -112t30 -144.5t-30 -144t-78.5 -111.5t-110.5 -72t-126 -25.5t-126 25.5t-111 71.5zM222 743q0 15 4.5 32.5t15 32t28 24.5t43.5 10q23 0 44 -6.5t42 -14t42 -13.5t44 -6q20 0 28 12.5t13 30.5h34 q0 -15 -4.5 -32.5t-15 -32t-28 -24.5t-43.5 -10q-23 0 -44 6.5t-42 14t-42 14t-44 6.5q-20 0 -28 -13t-13 -31h-34z" />
<glyph unicode="&#xd6;" horiz-adv-x="782" d="M202 137q26 -48 70.5 -80.5t118.5 -32.5q49 0 85 15t61.5 40.5t42 58t26 67t13 69t3.5 62.5q0 29 -3.5 63t-13 69t-26 67.5t-42 58t-61.5 40.5t-85 15t-85 -15t-61.5 -40.5t-42 -58t-26 -67.5t-13 -69t-3.5 -63q0 -44 9 -96.5t33 -102.5zM154 80q-48 48 -78 112.5 t-30 143.5t30 144.5t78.5 112t110.5 72t126 25.5t126 -25.5t110.5 -72t78.5 -112t30 -144.5t-30 -144t-78.5 -111.5t-110.5 -72t-126 -25.5t-126 25.5t-111 71.5zM447 754q-13 13 -13 33t13.5 33t33.5 13t33 -13t13 -33t-13 -33t-33 -13q-21 0 -34 13zM267 754 q-13 13 -13 33t13.5 33t33.5 13t33 -13t13 -33t-13 -33t-33 -13q-21 0 -34 13z" />
<glyph unicode="&#xd7;" d="M114 210l114 114l-114 114l32 32l113 -114l114 113l29 -29l-113 -114l114 -113l-32 -32l-114 114l-114 -114z" />
<glyph unicode="&#xd8;" horiz-adv-x="786" d="M222 -92l37 104q-44 19 -82.5 50.5t-67 73t-45 92t-16.5 108.5q0 79 30 144.5t78.5 112t110.5 72t126 25.5q50 0 103 -17l28 77h53l-35 -97q41 -21 77 -52t62.5 -71.5t41.5 -89t15 -104.5q0 -79 -30 -144t-78.5 -111.5t-110.5 -72t-126 -25.5q-45 0 -87 12l-31 -87h-53z M482 632q-40 17 -89 17t-85 -15t-61.5 -40.5t-42 -58t-26 -67.5t-13 -69t-3.5 -63q0 -32 4.5 -71.5t17 -78.5t34.5 -73.5t57 -56.5zM320 35q36 -11 73 -11q49 0 85 15t61.5 40.5t42 58t26 67t13 69t3.5 62.5q0 30 -4 67t-15 74t-30.5 71t-49.5 58z" />
<glyph unicode="&#xd9;" horiz-adv-x="776" d="M219 231q0 -96 45.5 -149.5t146.5 -53.5q58 0 95.5 17.5t59.5 50.5t30.5 80t8.5 106v300q0 31 -10 42.5t-36 13.5l-47 3v32h230v-32l-41 -3q-26 -2 -36 -13.5t-10 -42.5v-314q0 -63 -11 -115.5t-40 -90t-80 -58.5t-130 -21q-84 0 -137.5 19.5t-83.5 54t-41 82t-11 104.5 v339q0 31 -10 42.5t-36 13.5l-41 3v32h278v-32l-47 -3q-26 -2 -36 -13.5t-10 -42.5v-351zM278 820q-10 7 -10 16q0 13 9 24q4 6 11 11.5t14 5.5q8 0 16 -8l136 -137l-14 -18z" />
<glyph unicode="&#xda;" horiz-adv-x="776" d="M219 231q0 -96 45.5 -149.5t146.5 -53.5q58 0 95.5 17.5t59.5 50.5t30.5 80t8.5 106v300q0 31 -10 42.5t-36 13.5l-47 3v32h230v-32l-41 -3q-26 -2 -36 -13.5t-10 -42.5v-314q0 -63 -11 -115.5t-40 -90t-80 -58.5t-130 -21q-84 0 -137.5 19.5t-83.5 54t-41 82t-11 104.5 v339q0 31 -10 42.5t-36 13.5l-41 3v32h278v-32l-47 -3q-26 -2 -36 -13.5t-10 -42.5v-351zM376 714l-14 18l136 137q8 8 16 8q7 0 14 -5.5t11 -11.5q9 -11 9 -24q0 -9 -10 -16z" />
<glyph unicode="&#xdb;" horiz-adv-x="776" d="M219 231q0 -96 45.5 -149.5t146.5 -53.5q58 0 95.5 17.5t59.5 50.5t30.5 80t8.5 106v300q0 31 -10 42.5t-36 13.5l-47 3v32h230v-32l-41 -3q-26 -2 -36 -13.5t-10 -42.5v-314q0 -63 -11 -115.5t-40 -90t-80 -58.5t-130 -21q-84 0 -137.5 19.5t-83.5 54t-41 82t-11 104.5 v339q0 31 -10 42.5t-36 13.5l-41 3v32h278v-32l-47 -3q-26 -2 -36 -13.5t-10 -42.5v-351zM274 729l102 117q6 8 13.5 14.5t17.5 6.5t16 -7l15 -14l101 -117l-16 -16l-116 84l-116 -84z" />
<glyph unicode="&#xdc;" horiz-adv-x="776" d="M219 231q0 -96 45.5 -149.5t146.5 -53.5q58 0 95.5 17.5t59.5 50.5t30.5 80t8.5 106v300q0 31 -10 42.5t-36 13.5l-47 3v32h230v-32l-41 -3q-26 -2 -36 -13.5t-10 -42.5v-314q0 -63 -11 -115.5t-40 -90t-80 -58.5t-130 -21q-84 0 -137.5 19.5t-83.5 54t-41 82t-11 104.5 v339q0 31 -10 42.5t-36 13.5l-41 3v32h278v-32l-47 -3q-26 -2 -36 -13.5t-10 -42.5v-351zM444 754q-13 13 -13 33t13.5 33t33.5 13t33 -13t13 -33t-13 -33t-33 -13q-21 0 -34 13zM264 754q-13 13 -13 33t13.5 33t33.5 13t33 -13t13 -33t-13 -33t-33 -13q-21 0 -34 13z" />
<glyph unicode="&#xdd;" horiz-adv-x="684" d="M195 0v32l47 3q26 2 35.5 14.5t9.5 41.5v204l-159 261q-27 44 -47 62t-46 20l-30 3v32h285v-32l-38 -3q-35 -3 -35 -31q0 -18 19 -49l125 -207l156 229q12 16 12 31q0 25 -33 27l-38 3v32h221v-32l-28 -3q-26 -3 -42.5 -16t-34.5 -39l-188 -275v-217q0 -31 10 -42.5 t36 -13.5l41 -3v-32h-278zM310 714l-14 18l136 137q8 8 16 8q7 0 14 -5.5t11 -11.5q9 -11 9 -24q0 -9 -10 -16z" />
<glyph unicode="&#xde;" horiz-adv-x="612" d="M34 0v32l41 3q26 2 36 11t10 40v504q-2 26 -12 36t-34 12l-41 3v32h278v-32l-47 -3q-26 -2 -36 -12.5t-10 -39.5v-46h118q42 0 84 -9t75.5 -30.5t54.5 -56.5t21 -87q0 -57 -21 -95t-57.5 -61t-86 -33t-107.5 -10h-80v-75q0 -29 10 -37.5t36 -10.5l41 -3v-32h-273z M220 199h69q91 0 137 34t46 118q0 79 -43.5 114.5t-112.5 35.5h-96v-302z" />
<glyph unicode="&#xdf;" horiz-adv-x="578" d="M28 0v29l36 3q21 1 29 10t8 41v311h-76v49h76v63q0 34 11 69.5t34.5 64.5t61 47.5t90.5 18.5q37 0 67.5 -10t52 -26.5t33 -38t11.5 -45.5q0 -46 -16.5 -74t-36 -49.5t-35.5 -43t-16 -53.5q0 -27 15 -44t38 -30.5t49 -25.5t49 -29.5t38 -42.5t15 -64q0 -36 -15 -62 t-38.5 -43.5t-51 -25.5t-52.5 -8q-42 0 -72.5 9.5t-39.5 13.5v114h27q3 -15 9.5 -33t17.5 -33t27.5 -25.5t40.5 -10.5q38 0 57.5 22.5t19.5 60.5q0 27 -14.5 45t-36.5 31.5t-48 25t-48 27.5t-36.5 38.5t-14.5 56.5q0 37 15 64.5t33 53t33 53t15 64.5q0 45 -27.5 73t-75.5 28 q-57 0 -82 -37t-25 -122v-427q0 -32 8 -41t29 -10l38 -3v-29h-227z" />
<glyph unicode="&#xe0;" horiz-adv-x="452" d="M365 94q0 -23 4 -40t21 -17q9 0 16 5.5t9 9.5l18 -19q-2 -3 -7.5 -10t-15 -14t-22.5 -12.5t-29 -5.5q-19 0 -31 5t-19.5 13t-12 18t-7.5 20q-7 -7 -20 -16.5t-30.5 -18.5t-39 -15t-45.5 -6q-48 0 -79.5 26.5t-31.5 72.5q0 40 28.5 74t102.5 66l113 48v72q0 18 -5.5 29.5 t-14 18t-18.5 9.5t-19 3q-19 0 -33.5 -3t-30.5 -10q-20 -8 -27.5 -20.5t-7.5 -26.5q0 -23 -8.5 -40.5t-35.5 -17.5q-17 0 -26 10.5t-9 25.5q0 19 21 43.5t73 49.5q32 16 60 23.5t60 7.5q45 0 72 -23.5t27 -68.5v-266zM188 192q-41 -19 -53 -41.5t-12 -41.5q0 -24 17 -45 t50 -21q31 0 57 15t40 27v151zM257 485l-111 158q-4 4 -4 12t5.5 14.5t12.5 10.5q11 7 22 7q14 0 20 -13l76 -178z" />
<glyph unicode="&#xe1;" horiz-adv-x="452" d="M365 94q0 -23 4 -40t21 -17q9 0 16 5.5t9 9.5l18 -19q-2 -3 -7.5 -10t-15 -14t-22.5 -12.5t-29 -5.5q-19 0 -31 5t-19.5 13t-12 18t-7.5 20q-7 -7 -20 -16.5t-30.5 -18.5t-39 -15t-45.5 -6q-48 0 -79.5 26.5t-31.5 72.5q0 40 28.5 74t102.5 66l113 48v72q0 18 -5.5 29.5 t-14 18t-18.5 9.5t-19 3q-19 0 -33.5 -3t-30.5 -10q-20 -8 -27.5 -20.5t-7.5 -26.5q0 -23 -8.5 -40.5t-35.5 -17.5q-17 0 -26 10.5t-9 25.5q0 19 21 43.5t73 49.5q32 16 60 23.5t60 7.5q45 0 72 -23.5t27 -68.5v-266zM188 192q-41 -19 -53 -41.5t-12 -41.5q0 -24 17 -45 t50 -21q31 0 57 15t40 27v151zM179 496l76 178q6 13 20 13q11 0 22 -7q7 -4 12.5 -10.5t5.5 -14.5t-4 -12l-111 -158z" />
<glyph unicode="&#xe2;" horiz-adv-x="452" d="M365 94q0 -23 4 -40t21 -17q9 0 16 5.5t9 9.5l18 -19q-2 -3 -7.5 -10t-15 -14t-22.5 -12.5t-29 -5.5q-19 0 -31 5t-19.5 13t-12 18t-7.5 20q-7 -7 -20 -16.5t-30.5 -18.5t-39 -15t-45.5 -6q-48 0 -79.5 26.5t-31.5 72.5q0 40 28.5 74t102.5 66l113 48v72q0 18 -5.5 29.5 t-14 18t-18.5 9.5t-19 3q-19 0 -33.5 -3t-30.5 -10q-20 -8 -27.5 -20.5t-7.5 -26.5q0 -23 -8.5 -40.5t-35.5 -17.5q-17 0 -26 10.5t-9 25.5q0 19 21 43.5t73 49.5q32 16 60 23.5t60 7.5q45 0 72 -23.5t27 -68.5v-266zM188 192q-41 -19 -53 -41.5t-12 -41.5q0 -24 17 -45 t50 -21q31 0 57 15t40 27v151zM114 498l84 169q10 21 29 21q12 0 18.5 -5.5t11.5 -16.5l83 -170l-21 -12l-93 122l-91 -120z" />
<glyph unicode="&#xe3;" horiz-adv-x="452" d="M365 94q0 -23 4 -40t21 -17q9 0 16 5.5t9 9.5l18 -19q-2 -3 -7.5 -10t-15 -14t-22.5 -12.5t-29 -5.5q-19 0 -31 5t-19.5 13t-12 18t-7.5 20q-7 -7 -20 -16.5t-30.5 -18.5t-39 -15t-45.5 -6q-48 0 -79.5 26.5t-31.5 72.5q0 40 28.5 74t102.5 66l113 48v72q0 18 -5.5 29.5 t-14 18t-18.5 9.5t-19 3q-19 0 -33.5 -3t-30.5 -10q-20 -8 -27.5 -20.5t-7.5 -26.5q0 -23 -8.5 -40.5t-35.5 -17.5q-17 0 -26 10.5t-9 25.5q0 19 21 43.5t73 49.5q32 16 60 23.5t60 7.5q45 0 72 -23.5t27 -68.5v-266zM188 192q-41 -19 -53 -41.5t-12 -41.5q0 -24 17 -45 t50 -21q31 0 57 15t40 27v151zM76 539q0 15 4.5 32t15 31.5t27.5 24t43 9.5q17 0 33 -5.5t32.5 -12t34.5 -12t38 -5.5q23 0 31.5 10t13.5 28h34q0 -15 -4.5 -32t-15 -31.5t-28 -24t-42.5 -9.5q-17 0 -33.5 5.5t-33 12t-34 12t-37.5 5.5q-23 0 -31.5 -10t-13.5 -28h-34z" />
<glyph unicode="&#xe4;" horiz-adv-x="452" d="M365 94q0 -23 4 -40t21 -17q9 0 16 5.5t9 9.5l18 -19q-2 -3 -7.5 -10t-15 -14t-22.5 -12.5t-29 -5.5q-19 0 -31 5t-19.5 13t-12 18t-7.5 20q-7 -7 -20 -16.5t-30.5 -18.5t-39 -15t-45.5 -6q-48 0 -79.5 26.5t-31.5 72.5q0 40 28.5 74t102.5 66l113 48v72q0 18 -5.5 29.5 t-14 18t-18.5 9.5t-19 3q-19 0 -33.5 -3t-30.5 -10q-20 -8 -27.5 -20.5t-7.5 -26.5q0 -23 -8.5 -40.5t-35.5 -17.5q-17 0 -26 10.5t-9 25.5q0 19 21 43.5t73 49.5q32 16 60 23.5t60 7.5q45 0 72 -23.5t27 -68.5v-266zM188 192q-41 -19 -53 -41.5t-12 -41.5q0 -24 17 -45 t50 -21q31 0 57 15t40 27v151zM284 568q-13 13 -13 33t13.5 33t33.5 13t33 -13t13 -33t-13 -33t-33 -13q-21 0 -34 13zM104 568q-13 13 -13 33t13.5 33t33.5 13t33 -13t13 -33t-13 -33t-33 -13q-21 0 -34 13z" />
<glyph unicode="&#xe5;" horiz-adv-x="452" d="M365 94q0 -23 4 -40t21 -17q9 0 16 5.5t9 9.5l18 -19q-2 -3 -7.5 -10t-15 -14t-22.5 -12.5t-29 -5.5q-19 0 -31 5t-19.5 13t-12 18t-7.5 20q-7 -7 -20 -16.5t-30.5 -18.5t-39 -15t-45.5 -6q-48 0 -79.5 26.5t-31.5 72.5q0 40 28.5 74t102.5 66l113 48v72q0 18 -5.5 29.5 t-14 18t-18.5 9.5t-19 3q-19 0 -33.5 -3t-30.5 -10q-20 -8 -27.5 -20.5t-7.5 -26.5q0 -23 -8.5 -40.5t-35.5 -17.5q-17 0 -26 10.5t-9 25.5q0 19 21 43.5t73 49.5q32 16 60 23.5t60 7.5q45 0 72 -23.5t27 -68.5v-266zM188 192q-41 -19 -53 -41.5t-12 -41.5q0 -24 17 -45 t50 -21q31 0 57 15t40 27v151zM237 523q-35 0 -59 24t-24 59t24 59t59 24t59 -24t24 -59t-24 -59t-59 -24zM185 606q0 -23 14.5 -37.5t37.5 -14.5t37 14.5t14 37.5t-14 37t-37 14t-37.5 -14t-14.5 -37z" />
<glyph unicode="&#xe6;" horiz-adv-x="697" d="M287 255v95q0 18 -5.5 29.5t-14 18t-18.5 9.5t-19 3q-19 0 -33.5 -3t-30.5 -10q-20 -8 -27.5 -20.5t-7.5 -26.5q0 -23 -8.5 -40.5t-35.5 -17.5q-17 0 -26 10.5t-9 25.5q0 19 21 43.5t73 49.5q32 16 60 23.5t60 7.5q68 0 88 -56q26 26 57.5 41t70.5 15q46 0 80 -18.5 t56.5 -47t33.5 -63.5t11 -68h-302q-1 -7 -1 -13v-15q0 -27 8.5 -57t26.5 -54.5t45 -40.5t64 -16q35 0 59 13t39 29t22 30.5t8 17.5l30 -12q-24 -66 -69 -106t-115 -40q-37 0 -66.5 10.5t-52.5 29.5q-18 15 -32 35q-52 -38 -91.5 -56.5t-81.5 -18.5q-48 0 -79.5 27t-31.5 76 q0 21 5.5 40.5t20.5 36.5t40.5 31t64.5 24zM188 188q-21 -5 -34 -14t-20 -20t-9 -23t-2 -22q0 -24 17 -45t50 -21q15 0 32.5 5.5t34 13.5t30 17.5t22.5 17.5q-25 51 -25 115zM563 296q0 18 -4.5 38.5t-15 38t-28 29t-44.5 11.5q-42 0 -69 -30t-36 -87h197z" />
<glyph unicode="&#xe7;" horiz-adv-x="462" d="M176 -165q11 -7 20.5 -11.5t27.5 -4.5q24 0 40 11t16 34q0 21 -12.5 29.5t-28.5 8.5q-8 0 -15 -1t-28 -6l-8 8l36 89q-45 4 -79.5 21.5t-58 46t-35.5 66t-12 82.5q0 54 17.5 98.5t47 77t69.5 50.5t85 18q42 0 72.5 -11t50.5 -26.5t29.5 -33.5t9.5 -32q0 -19 -11.5 -30.5 t-30.5 -11.5q-27 0 -38 15.5t-13 41.5q-5 50 -72 50q-26 0 -49 -11.5t-41 -34.5t-28.5 -57.5t-10.5 -80.5q0 -39 9 -71t27 -55t45.5 -35.5t64.5 -12.5q31 0 54.5 11t39.5 25t25 28t12 20l28 -14q-3 -9 -14 -30t-31 -42.5t-50 -39.5t-71 -22l-22 -55q15 3 29 3q28 0 48.5 -18 t20.5 -50q0 -24 -11.5 -41t-28.5 -27t-37 -14.5t-36 -4.5q-17 0 -36 5.5t-30 15.5z" />
<glyph unicode="&#xe8;" horiz-adv-x="454" d="M118 255q-1 -7 -1 -13v-15q0 -27 8.5 -57t26.5 -54.5t45 -40.5t64 -16q35 0 59 13t39 29t22 30.5t8 17.5l30 -12q-24 -66 -69 -106t-115 -40q-47 0 -84 18t-62.5 49t-38.5 72t-13 86q0 39 13 80.5t38.5 76t63 57t87.5 22.5q46 0 80 -18.5t56.5 -47t33.5 -63.5t11 -68 h-302zM320 296q0 18 -4.5 38.5t-15 38t-28 29t-44.5 11.5q-42 0 -69 -30t-36 -87h197zM255 485l-111 158q-4 4 -4 12t5.5 14.5t12.5 10.5q11 7 22 7q14 0 20 -13l76 -178z" />
<glyph unicode="&#xe9;" horiz-adv-x="454" d="M118 255q-1 -7 -1 -13v-15q0 -27 8.5 -57t26.5 -54.5t45 -40.5t64 -16q35 0 59 13t39 29t22 30.5t8 17.5l30 -12q-24 -66 -69 -106t-115 -40q-47 0 -84 18t-62.5 49t-38.5 72t-13 86q0 39 13 80.5t38.5 76t63 57t87.5 22.5q46 0 80 -18.5t56.5 -47t33.5 -63.5t11 -68 h-302zM320 296q0 18 -4.5 38.5t-15 38t-28 29t-44.5 11.5q-42 0 -69 -30t-36 -87h197zM192 496l76 178q6 13 20 13q11 0 22 -7q7 -4 12.5 -10.5t5.5 -14.5t-4 -12l-111 -158z" />
<glyph unicode="&#xea;" horiz-adv-x="454" d="M118 255q-1 -7 -1 -13v-15q0 -27 8.5 -57t26.5 -54.5t45 -40.5t64 -16q35 0 59 13t39 29t22 30.5t8 17.5l30 -12q-24 -66 -69 -106t-115 -40q-47 0 -84 18t-62.5 49t-38.5 72t-13 86q0 39 13 80.5t38.5 76t63 57t87.5 22.5q46 0 80 -18.5t56.5 -47t33.5 -63.5t11 -68 h-302zM320 296q0 18 -4.5 38.5t-15 38t-28 29t-44.5 11.5q-42 0 -69 -30t-36 -87h197zM121 498l84 169q10 21 29 21q12 0 18.5 -5.5t11.5 -16.5l83 -170l-21 -12l-93 122l-91 -120z" />
<glyph unicode="&#xeb;" horiz-adv-x="454" d="M118 255q-1 -7 -1 -13v-15q0 -27 8.5 -57t26.5 -54.5t45 -40.5t64 -16q35 0 59 13t39 29t22 30.5t8 17.5l30 -12q-24 -66 -69 -106t-115 -40q-47 0 -84 18t-62.5 49t-38.5 72t-13 86q0 39 13 80.5t38.5 76t63 57t87.5 22.5q46 0 80 -18.5t56.5 -47t33.5 -63.5t11 -68 h-302zM320 296q0 18 -4.5 38.5t-15 38t-28 29t-44.5 11.5q-42 0 -69 -30t-36 -87h197zM293 568q-13 13 -13 33t13.5 33t33.5 13t33 -13t13 -33t-13 -33t-33 -13q-21 0 -34 13zM113 568q-13 13 -13 33t13.5 33t33.5 13t33 -13t13 -33t-13 -33t-33 -13q-21 0 -34 13z" />
<glyph unicode="&#xec;" horiz-adv-x="262" d="M34 0v29l23 2q21 1 29 10t8 41v258q0 17 -3.5 25t-20.5 12l-30 6v26l109 43h24v-370q0 -32 8 -41t29 -10l23 -2v-29h-199zM139 485l-111 158q-4 4 -4 12t5.5 14.5t12.5 10.5q11 7 22 7q14 0 20 -13l76 -178z" />
<glyph unicode="&#xed;" horiz-adv-x="262" d="M34 0v29l23 2q21 1 29 10t8 41v258q0 17 -3.5 25t-20.5 12l-30 6v26l109 43h24v-370q0 -32 8 -41t29 -10l23 -2v-29h-199zM84 496l76 178q6 13 20 13q11 0 22 -7q7 -4 12.5 -10.5t5.5 -14.5t-4 -12l-111 -158z" />
<glyph unicode="&#xee;" horiz-adv-x="262" d="M34 0v29l23 2q21 1 29 10t8 41v258q0 17 -3.5 25t-20.5 12l-30 6v26l109 43h24v-370q0 -32 8 -41t29 -10l23 -2v-29h-199zM19 498l84 169q10 21 29 21q12 0 18.5 -5.5t11.5 -16.5l83 -170l-21 -12l-93 122l-91 -120z" />
<glyph unicode="&#xef;" horiz-adv-x="262" d="M34 0v29l23 2q21 1 29 10t8 41v258q0 17 -3.5 25t-20.5 12l-30 6v26l109 43h24v-370q0 -32 8 -41t29 -10l23 -2v-29h-199zM188 568q-13 13 -13 33t13.5 33t33.5 13t33 -13t13 -33t-13 -33t-33 -13q-21 0 -34 13zM8 568q-13 13 -13 33t13.5 33t33.5 13t33 -13t13 -33 t-13 -33t-33 -13q-21 0 -34 13z" />
<glyph unicode="&#xf0;" horiz-adv-x="503" d="M185 482l-21 36l87 54q-31 29 -66.5 51t-73.5 39l19 27q40 -11 84 -32.5t86 -53.5l103 66l22 -36l-91 -58q28 -26 52.5 -57.5t42.5 -68t28.5 -78t10.5 -88.5q0 -57 -12.5 -110t-38.5 -93.5t-67 -64.5t-98 -24q-61 0 -102.5 19.5t-67 51t-36.5 70t-11 76.5q0 43 14 79.5 t40 63t62.5 41.5t82.5 15q45 0 77 -13t52 -25q-11 52 -32.5 94.5t-50.5 77.5zM368 323q-18 11 -46.5 24t-65.5 13q-63 0 -95.5 -43.5t-32.5 -112.5q0 -91 35 -132t89 -41q58 0 90.5 53t32.5 168q0 12 -0.5 21t-1.5 16z" />
<glyph unicode="&#xf1;" horiz-adv-x="525" d="M29 0v29l23 2q21 1 29 10t8 41v261q0 14 -3.5 21t-20.5 12l-30 9v24l103 43h24v-75q9 10 23 23.5t32 24.5t40 19t48 8q63 0 99.5 -41.5t36.5 -119.5v-209q0 -32 8 -41t29 -10l23 -2v-29h-199v29l23 2q21 1 29 10t8 41v190q0 64 -21 93t-69 29q-20 0 -37 -7.5t-30 -17 t-22.5 -20t-14.5 -16.5v-251q0 -32 8 -41t29 -10l23 -2v-29h-199zM96 539q0 15 4.5 32t15 31.5t27.5 24t43 9.5q17 0 33 -5.5t32.5 -12t34.5 -12t38 -5.5q23 0 31.5 10t13.5 28h34q0 -15 -4.5 -32t-15 -31.5t-28 -24t-42.5 -9.5q-17 0 -33.5 5.5t-33 12t-34 12t-37.5 5.5 q-23 0 -31.5 -10t-13.5 -28h-34z" />
<glyph unicode="&#xf2;" horiz-adv-x="506" d="M170 8q-58 27 -95 83t-37 131q0 49 17 91t46.5 73t68.5 48.5t83 17.5t83 -17.5t68.5 -48.5t46.5 -73t17 -91q0 -50 -17 -92t-46.5 -73t-68.5 -48.5t-83 -17.5q-43 0 -83 17zM153 99q14 -29 38 -49t62 -20q37 0 61.5 20t38 49t19 62.5t5.5 60.5t-5.5 60.5t-19 62.5t-38 49 t-61.5 20q-38 0 -62 -20t-37.5 -49t-19 -62.5t-5.5 -60.5t5.5 -60.5t18.5 -62.5zM271 485l-111 158q-4 4 -4 12t5.5 14.5t12.5 10.5q11 7 22 7q14 0 20 -13l76 -178z" />
<glyph unicode="&#xf3;" horiz-adv-x="506" d="M170 8q-58 27 -95 83t-37 131q0 49 17 91t46.5 73t68.5 48.5t83 17.5t83 -17.5t68.5 -48.5t46.5 -73t17 -91q0 -50 -17 -92t-46.5 -73t-68.5 -48.5t-83 -17.5q-43 0 -83 17zM153 99q14 -29 38 -49t62 -20q37 0 61.5 20t38 49t19 62.5t5.5 60.5t-5.5 60.5t-19 62.5t-38 49 t-61.5 20q-38 0 -62 -20t-37.5 -49t-19 -62.5t-5.5 -60.5t5.5 -60.5t18.5 -62.5zM191 496l76 178q6 13 20 13q11 0 22 -7q7 -4 12.5 -10.5t5.5 -14.5t-4 -12l-111 -158z" />
<glyph unicode="&#xf4;" horiz-adv-x="506" d="M170 8q-58 27 -95 83t-37 131q0 49 17 91t46.5 73t68.5 48.5t83 17.5t83 -17.5t68.5 -48.5t46.5 -73t17 -91q0 -50 -17 -92t-46.5 -73t-68.5 -48.5t-83 -17.5q-43 0 -83 17zM153 99q14 -29 38 -49t62 -20q37 0 61.5 20t38 49t19 62.5t5.5 60.5t-5.5 60.5t-19 62.5t-38 49 t-61.5 20q-38 0 -62 -20t-37.5 -49t-19 -62.5t-5.5 -60.5t5.5 -60.5t18.5 -62.5zM137 498l84 169q10 21 29 21q12 0 18.5 -5.5t11.5 -16.5l83 -170l-21 -12l-93 122l-91 -120z" />
<glyph unicode="&#xf5;" horiz-adv-x="506" d="M170 8q-58 27 -95 83t-37 131q0 49 17 91t46.5 73t68.5 48.5t83 17.5t83 -17.5t68.5 -48.5t46.5 -73t17 -91q0 -50 -17 -92t-46.5 -73t-68.5 -48.5t-83 -17.5q-43 0 -83 17zM153 99q14 -29 38 -49t62 -20q37 0 61.5 20t38 49t19 62.5t5.5 60.5t-5.5 60.5t-19 62.5t-38 49 t-61.5 20q-38 0 -62 -20t-37.5 -49t-19 -62.5t-5.5 -60.5t5.5 -60.5t18.5 -62.5zM91 539q0 15 4.5 32t15 31.5t27.5 24t43 9.5q17 0 33 -5.5t32.5 -12t34.5 -12t38 -5.5q23 0 31.5 10t13.5 28h34q0 -15 -4.5 -32t-15 -31.5t-28 -24t-42.5 -9.5q-17 0 -33.5 5.5t-33 12 t-34 12t-37.5 5.5q-23 0 -31.5 -10t-13.5 -28h-34z" />
<glyph unicode="&#xf6;" horiz-adv-x="506" d="M170 8q-58 27 -95 83t-37 131q0 49 17 91t46.5 73t68.5 48.5t83 17.5t83 -17.5t68.5 -48.5t46.5 -73t17 -91q0 -50 -17 -92t-46.5 -73t-68.5 -48.5t-83 -17.5q-43 0 -83 17zM153 99q14 -29 38 -49t62 -20q37 0 61.5 20t38 49t19 62.5t5.5 60.5t-5.5 60.5t-19 62.5t-38 49 t-61.5 20q-38 0 -62 -20t-37.5 -49t-19 -62.5t-5.5 -60.5t5.5 -60.5t18.5 -62.5zM307 568q-13 13 -13 33t13.5 33t33.5 13t33 -13t13 -33t-13 -33t-33 -13q-21 0 -34 13zM127 568q-13 13 -13 33t13.5 33t33.5 13t33 -13t13 -33t-13 -33t-33 -13q-21 0 -34 13z" />
<glyph unicode="&#xf7;" d="M217 407q-13 13 -13 33t13.5 33t33.5 13t33 -13t13 -33t-13 -33t-33 -13q-21 0 -34 13zM76 304v42h366v-42h-366zM217 176q-13 13 -13 33t13.5 33t33.5 13t33 -13t13 -33t-13 -33t-33 -13q-21 0 -34 13z" />
<glyph unicode="&#xf8;" horiz-adv-x="506" d="M86 -48l43 80q-42 31 -66.5 80t-24.5 110q0 49 17 91t46.5 73t68.5 48.5t83 17.5q23 0 45.5 -5.5t43.5 -15.5l32 60h45l-43 -80q42 -31 67 -80t25 -109q0 -50 -17 -92t-46.5 -73t-68.5 -48.5t-83 -17.5q-24 0 -47 5.5t-43 15.5l-32 -60h-45zM185 54q27 -24 68 -24 q37 0 61.5 20t38 49t19 62.5t5.5 60.5q0 29 -6.5 66t-23.5 68zM320 390q-27 24 -67 24q-38 0 -62 -20t-37.5 -49t-19 -62.5t-5.5 -60.5q0 -30 6.5 -66.5t23.5 -67.5z" />
<glyph unicode="&#xf9;" horiz-adv-x="521" d="M164 150q0 -21 3 -40t12.5 -33.5t26.5 -22.5t45 -8q24 0 43 9.5t32 22t20.5 24t9.5 16.5v251q0 26 -9 33.5t-28 9.5l-23 2v29h139v-362q0 -21 14 -24l47 -8v-26l-121 -32l-15 12v66l-14 -18q-11 -13 -29.5 -26.5t-45.5 -23.5t-63 -10q-38 0 -62 10.5t-37.5 28.5t-18.5 42 t-5 50v246q0 27 -8.5 34.5t-28.5 9.5l-23 2v29h139v-293zM269 485l-111 158q-4 4 -4 12t5.5 14.5t12.5 10.5q11 7 22 7q14 0 20 -13l76 -178z" />
<glyph unicode="&#xfa;" horiz-adv-x="521" d="M164 150q0 -21 3 -40t12.5 -33.5t26.5 -22.5t45 -8q24 0 43 9.5t32 22t20.5 24t9.5 16.5v251q0 26 -9 33.5t-28 9.5l-23 2v29h139v-362q0 -21 14 -24l47 -8v-26l-121 -32l-15 12v66l-14 -18q-11 -13 -29.5 -26.5t-45.5 -23.5t-63 -10q-38 0 -62 10.5t-37.5 28.5t-18.5 42 t-5 50v246q0 27 -8.5 34.5t-28.5 9.5l-23 2v29h139v-293zM202 496l76 178q6 13 20 13q11 0 22 -7q7 -4 12.5 -10.5t5.5 -14.5t-4 -12l-111 -158z" />
<glyph unicode="&#xfb;" horiz-adv-x="521" d="M164 150q0 -21 3 -40t12.5 -33.5t26.5 -22.5t45 -8q24 0 43 9.5t32 22t20.5 24t9.5 16.5v251q0 26 -9 33.5t-28 9.5l-23 2v29h139v-362q0 -21 14 -24l47 -8v-26l-121 -32l-15 12v66l-14 -18q-11 -13 -29.5 -26.5t-45.5 -23.5t-63 -10q-38 0 -62 10.5t-37.5 28.5t-18.5 42 t-5 50v246q0 27 -8.5 34.5t-28.5 9.5l-23 2v29h139v-293zM137 498l84 169q10 21 29 21q12 0 18.5 -5.5t11.5 -16.5l83 -170l-21 -12l-93 122l-91 -120z" />
<glyph unicode="&#xfc;" horiz-adv-x="521" d="M164 150q0 -21 3 -40t12.5 -33.5t26.5 -22.5t45 -8q24 0 43 9.5t32 22t20.5 24t9.5 16.5v251q0 26 -9 33.5t-28 9.5l-23 2v29h139v-362q0 -21 14 -24l47 -8v-26l-121 -32l-15 12v66l-14 -18q-11 -13 -29.5 -26.5t-45.5 -23.5t-63 -10q-38 0 -62 10.5t-37.5 28.5t-18.5 42 t-5 50v246q0 27 -8.5 34.5t-28.5 9.5l-23 2v29h139v-293zM316 568q-13 13 -13 33t13.5 33t33.5 13t33 -13t13 -33t-13 -33t-33 -13q-21 0 -34 13zM136 568q-13 13 -13 33t13.5 33t33.5 13t33 -13t13 -33t-13 -33t-33 -13q-21 0 -34 13z" />
<glyph unicode="&#xfd;" horiz-adv-x="531" d="M230 -110q-24 -52 -46 -74.5t-52 -22.5q-14 0 -23 4.5t-14.5 11.5t-8 14t-2.5 13q0 15 11 29t33 14q14 0 21.5 -5.5t14.5 -5.5q12 0 23 24l60 130l-146 316q-16 35 -37 53t-53 22l-6 1v29h240v-29l-17 -1q-26 -2 -39 -9t-13 -23q0 -10 3.5 -19.5t8.5 -20.5l103 -222 l93 196q11 24 15 39.5t4 24.5q0 30 -55 34l-15 1v29h193v-29l-6 -1q-17 -3 -28.5 -8t-20 -14t-16 -22t-16.5 -31zM256 496l76 178q6 13 20 13q11 0 22 -7q7 -4 12.5 -10.5t5.5 -14.5t-4 -12l-111 -158z" />
<glyph unicode="&#xfe;" horiz-adv-x="512" d="M155 80q3 -5 11.5 -12.5t22 -15t31.5 -13t40 -5.5q27 0 51 13.5t41 38.5t27 59t10 76q0 38 -9 70t-25.5 55.5t-39.5 36.5t-51 13q-20 0 -38.5 -6t-33 -14.5t-24.5 -17.5t-13 -15v-263zM10 -207v29l29 3q21 2 29 10.5t8 40.5v728q0 14 -3.5 21t-20.5 12l-30 9v24l103 43 h24v-331q9 10 23 22.5t33.5 23t43.5 17.5t53 7q31 0 61.5 -14t55 -41.5t40 -67.5t15.5 -92q0 -62 -20 -107.5t-51.5 -75.5t-69 -45t-73.5 -15q-38 0 -66.5 8.5t-38.5 15.5v-142q0 -32 8 -41t29 -10l38 -3v-29h-220z" />
<glyph unicode="&#xff;" horiz-adv-x="531" d="M230 -110q-24 -52 -46 -74.5t-52 -22.5q-14 0 -23 4.5t-14.5 11.5t-8 14t-2.5 13q0 15 11 29t33 14q14 0 21.5 -5.5t14.5 -5.5q12 0 23 24l60 130l-146 316q-16 35 -37 53t-53 22l-6 1v29h240v-29l-17 -1q-26 -2 -39 -9t-13 -23q0 -10 3.5 -19.5t8.5 -20.5l103 -222 l93 196q11 24 15 39.5t4 24.5q0 30 -55 34l-15 1v29h193v-29l-6 -1q-17 -3 -28.5 -8t-20 -14t-16 -22t-16.5 -31zM344 568q-13 13 -13 33t13.5 33t33.5 13t33 -13t13 -33t-13 -33t-33 -13q-21 0 -34 13zM164 568q-13 13 -13 33t13.5 33t33.5 13t33 -13t13 -33t-13 -33 t-33 -13q-21 0 -34 13z" />
<glyph unicode="&#x131;" horiz-adv-x="262" d="M34 0v29l23 2q21 1 29 10t8 41v258q0 17 -3.5 25t-20.5 12l-30 6v26l109 43h24v-370q0 -32 8 -41t29 -10l23 -2v-29h-199z" />
<glyph unicode="&#x152;" horiz-adv-x="1069" d="M646 0q-32 0 -68.5 -2t-71.5 -5t-65.5 -5t-49.5 -2q-68 0 -130.5 25t-110 71t-76 110.5t-28.5 143.5t29.5 144t78.5 111t112.5 71.5t131.5 25.5q45 0 111.5 -7.5t142.5 -7.5h319l51 -148l-30 -13q-13 22 -27.5 43.5t-37 39t-56.5 28.5t-85 11h-129v-274h76 q65 0 90.5 28.5t29.5 85.5h31v-270h-32q0 35 -7.5 58t-22.5 36.5t-38 19t-53 5.5h-74v-216q0 -33 12.5 -51t53.5 -18h76q29 0 58.5 2.5t57.5 18.5q46 25 69 59.5t38 66.5l30 -9l-46 -176h-360zM560 552q0 27 -14 45.5t-36.5 29.5t-52 15.5t-59.5 4.5q-75 0 -121.5 -32.5 t-72.5 -80t-35 -101.5t-9 -97t8.5 -96.5t33.5 -101t70 -79.5t119 -32q32 0 62.5 4.5t54 15t38 27t14.5 40.5v438z" />
<glyph unicode="&#x153;" horiz-adv-x="791" d="M455 255q-1 -7 -1 -13v-15q0 -27 8.5 -57t26.5 -54.5t45 -40.5t64 -16q35 0 59 13t39 29t22 30.5t8 17.5l30 -12q-24 -66 -69 -106t-115 -40q-57 0 -96.5 26t-61.5 69q-25 -45 -69 -70t-98 -25q-44 0 -82 17.5t-66.5 48.5t-44.5 73t-16 92q0 49 16.5 91t45.5 73 t67.5 48.5t82.5 17.5q60 0 101.5 -27t66.5 -75q23 43 61.5 72.5t96.5 29.5q46 0 80 -18.5t56.5 -47t33.5 -63.5t11 -68h-302zM153 99q14 -29 38 -49t62 -20q37 0 61.5 20t38 49t19 62.5t5.5 60.5t-5.5 60.5t-19 62.5t-38 49t-61.5 20q-38 0 -62 -20t-37.5 -49t-19 -62.5 t-5.5 -60.5t5.5 -60.5t18.5 -62.5zM657 296q0 18 -4.5 38.5t-15 38t-28 29t-44.5 11.5q-42 0 -69 -30t-36 -87h197z" />
<glyph unicode="&#x178;" horiz-adv-x="684" d="M195 0v32l47 3q26 2 35.5 14.5t9.5 41.5v204l-159 261q-27 44 -47 62t-46 20l-30 3v32h285v-32l-38 -3q-35 -3 -35 -31q0 -18 19 -49l125 -207l156 229q12 16 12 31q0 25 -33 27l-38 3v32h221v-32l-28 -3q-26 -3 -42.5 -16t-34.5 -39l-188 -275v-217q0 -31 10 -42.5 t36 -13.5l41 -3v-32h-278zM431 754q-13 13 -13 33t13.5 33t33.5 13t33 -13t13 -33t-13 -33t-33 -13q-21 0 -34 13zM251 754q-13 13 -13 33t13.5 33t33.5 13t33 -13t13 -33t-13 -33t-33 -13q-21 0 -34 13z" />
<glyph unicode="&#x2c6;" horiz-adv-x="500" d="M134 498l84 169q10 21 29 21q12 0 18.5 -5.5t11.5 -16.5l83 -170l-21 -12l-93 122l-91 -120z" />
<glyph unicode="&#x2da;" horiz-adv-x="500" d="M250 523q-35 0 -59 24t-24 59t24 59t59 24t59 -24t24 -59t-24 -59t-59 -24zM198 606q0 -23 14.5 -37.5t37.5 -14.5t37 14.5t14 37.5t-14 37t-37 14t-37.5 -14t-14.5 -37z" />
<glyph unicode="&#x2dc;" horiz-adv-x="500" d="M96 539q0 15 4.5 32t15 31.5t27.5 24t43 9.5q17 0 33 -5.5t32.5 -12t34.5 -12t38 -5.5q23 0 31.5 10t13.5 28h34q0 -15 -4.5 -32t-15 -31.5t-28 -24t-42.5 -9.5q-17 0 -33.5 5.5t-33 12t-34 12t-37.5 5.5q-23 0 -31.5 -10t-13.5 -28h-34z" />
<glyph unicode="&#x2000;" horiz-adv-x="440" />
<glyph unicode="&#x2001;" horiz-adv-x="881" />
<glyph unicode="&#x2002;" horiz-adv-x="440" />
<glyph unicode="&#x2003;" horiz-adv-x="881" />
<glyph unicode="&#x2004;" horiz-adv-x="293" />
<glyph unicode="&#x2005;" horiz-adv-x="220" />
<glyph unicode="&#x2006;" horiz-adv-x="146" />
<glyph unicode="&#x2007;" horiz-adv-x="146" />
<glyph unicode="&#x2008;" horiz-adv-x="110" />
<glyph unicode="&#x2009;" horiz-adv-x="176" />
<glyph unicode="&#x200a;" horiz-adv-x="48" />
<glyph unicode="&#x2010;" horiz-adv-x="377" d="M55 240v72h267v-72h-267z" />
<glyph unicode="&#x2011;" horiz-adv-x="377" d="M55 240v72h267v-72h-267z" />
<glyph unicode="&#x2013;" horiz-adv-x="500" d="M0 223v56h500v-56h-500z" />
<glyph unicode="&#x2014;" horiz-adv-x="1000" d="M0 223v56h1000v-56h-1000z" />
<glyph unicode="&#x2018;" horiz-adv-x="280" d="M171 692q-2 -1 -10.5 -8.5t-18.5 -19.5t-17.5 -27.5t-7.5 -33.5q0 -19 5.5 -24.5t12.5 -5.5q5 0 10.5 2.5t17.5 2.5q6 0 13 -2.5t13.5 -7.5t11 -14t4.5 -22q0 -26 -17 -39t-40 -13q-12 0 -25 5t-23.5 16.5t-17.5 29t-7 42.5q0 31 9.5 55t22.5 41t26 28t20 16z" />
<glyph unicode="&#x2019;" horiz-adv-x="280" d="M109 501q1 1 9.5 8.5t18 19.5t17.5 27.5t8 33.5q0 19 -5.5 24.5t-11.5 5.5q-5 0 -10.5 -2.5t-17.5 -2.5q-6 0 -13 2.5t-13.5 7.5t-11 14t-4.5 22q0 26 17 39t40 13q12 0 25 -5.5t23.5 -16.5t17.5 -28.5t7 -42.5q0 -32 -9.5 -55.5t-22.5 -41t-26 -28t-20 -15.5z" />
<glyph unicode="&#x201a;" horiz-adv-x="280" d="M109 -122q1 1 9.5 8.5t18 19.5t17.5 27.5t8 33.5q0 19 -5.5 24.5t-11.5 5.5q-5 0 -10.5 -2.5t-17.5 -2.5q-6 0 -13 2.5t-13.5 7.5t-11 14t-4.5 22q0 26 17 39t40 13q12 0 25 -5.5t23.5 -16.5t17.5 -28.5t7 -42.5q0 -32 -9.5 -55.5t-22.5 -41t-26 -28t-20 -15.5z" />
<glyph unicode="&#x201c;" horiz-adv-x="459" d="M171 692q-2 -1 -10.5 -8.5t-18.5 -19.5t-17.5 -27.5t-7.5 -33.5q0 -19 5.5 -24.5t12.5 -5.5q5 0 10.5 2.5t17.5 2.5q6 0 13 -2.5t13.5 -7.5t11 -14t4.5 -22q0 -26 -17 -39t-40 -13q-12 0 -25 5t-23.5 16.5t-17.5 29t-7 42.5q0 31 9.5 55t22.5 41t26 28t20 16zM350 692 q-2 -1 -10.5 -8.5t-18.5 -19.5t-17.5 -27.5t-7.5 -33.5q0 -19 5.5 -24.5t12.5 -5.5q5 0 10.5 2.5t17.5 2.5q6 0 13 -2.5t13.5 -7.5t11 -14t4.5 -22q0 -26 -17 -39t-40 -13q-12 0 -25 5t-23.5 16.5t-17.5 29t-7 42.5q0 31 9.5 55t22.5 41t26 28t20 16z" />
<glyph unicode="&#x201d;" horiz-adv-x="459" d="M109 501q1 1 9.5 8.5t18 19.5t17.5 27.5t8 33.5q0 19 -5.5 24.5t-11.5 5.5q-5 0 -10.5 -2.5t-17.5 -2.5q-6 0 -13 2.5t-13.5 7.5t-11 14t-4.5 22q0 26 17 39t40 13q12 0 25 -5.5t23.5 -16.5t17.5 -28.5t7 -42.5q0 -32 -9.5 -55.5t-22.5 -41t-26 -28t-20 -15.5zM288 501 q1 1 9.5 8.5t18 19.5t17.5 27.5t8 33.5q0 19 -5.5 24.5t-11.5 5.5q-5 0 -10.5 -2.5t-17.5 -2.5q-6 0 -13 2.5t-13.5 7.5t-11 14t-4.5 22q0 26 17 39t40 13q12 0 25 -5.5t23.5 -16.5t17.5 -28.5t7 -42.5q0 -32 -9.5 -55.5t-22.5 -41t-26 -28t-20 -15.5z" />
<glyph unicode="&#x201e;" horiz-adv-x="459" d="M109 -122q1 1 9.5 8.5t18 19.5t17.5 27.5t8 33.5q0 19 -5.5 24.5t-11.5 5.5q-5 0 -10.5 -2.5t-17.5 -2.5q-6 0 -13 2.5t-13.5 7.5t-11 14t-4.5 22q0 26 17 39t40 13q12 0 25 -5.5t23.5 -16.5t17.5 -28.5t7 -42.5q0 -32 -9.5 -55.5t-22.5 -41t-26 -28t-20 -15.5zM288 -122 q1 1 9.5 8.5t18 19.5t17.5 27.5t8 33.5q0 19 -5.5 24.5t-11.5 5.5q-5 0 -10.5 -2.5t-17.5 -2.5q-6 0 -13 2.5t-13.5 7.5t-11 14t-4.5 22q0 26 17 39t40 13q12 0 25 -5.5t23.5 -16.5t17.5 -28.5t7 -42.5q0 -32 -9.5 -55.5t-22.5 -41t-26 -28t-20 -15.5z" />
<glyph unicode="&#x2022;" horiz-adv-x="352" d="M173 183q-24 43 -61 77.5t-76 58.5v6q39 24 75.5 58.5t60.5 77.5h7q24 -43 61 -77.5t76 -58.5v-6q-39 -24 -76 -58.5t-61 -77.5h-6z" />
<glyph unicode="&#x2026;" horiz-adv-x="837" d="M161 -9q-24 0 -40.5 16.5t-16.5 40.5t16.5 40.5t40.5 16.5q23 0 39.5 -16.5t16.5 -40.5t-16.5 -40.5t-39.5 -16.5zM418 -9q-24 0 -40.5 16.5t-16.5 40.5t16.5 40.5t40.5 16.5q23 0 39.5 -16.5t16.5 -40.5t-16.5 -40.5t-39.5 -16.5zM675 -9q-24 0 -40.5 16.5t-16.5 40.5 t16.5 40.5t40.5 16.5q23 0 39.5 -16.5t16.5 -40.5t-16.5 -40.5t-39.5 -16.5z" />
<glyph unicode="&#x202f;" horiz-adv-x="176" />
<glyph unicode="&#x2039;" horiz-adv-x="233" d="M177 53l-134 157q-5 8 -5 16t5 15l132 155l20 -13l-84 -157l87 -160z" />
<glyph unicode="&#x203a;" horiz-adv-x="233" d="M37 66l87 160l-84 157l20 13l132 -155q5 -7 5 -15t-5 -16l-134 -157z" />
<glyph unicode="&#x2044;" horiz-adv-x="180" d="M-146 0l418 653h54l-418 -653h-54z" />
<glyph unicode="&#x205f;" horiz-adv-x="220" />
<glyph unicode="&#x2074;" horiz-adv-x="350" d="M28 379v25l204 248h41v-233h56v-40h-56v-119h-63v119h-182zM87 419h123v148z" />
<glyph unicode="&#x20ac;" d="M-5 241l10 42h71q-1 11 -1 22v22v25q0 12 1 23h-55l10 42h50q2 16 5.5 30t8.5 28q30 98 94.5 151t151.5 53q62 0 100 -22t58 -48q13 -17 17.5 -29t4.5 -21q0 -41 -43 -41q-23 0 -32 15t-16 34q-5 16 -10.5 29t-15.5 22.5t-26 15t-41 5.5q-70 0 -106 -49.5t-48 -134.5 l-4 -38h254l-10 -42h-247v-46v-23q0 -12 1 -23h227l-10 -42h-215l3 -22q4 -40 14.5 -76.5t28 -64t43 -43.5t61.5 -16q26 0 44 6t30.5 16t20 24t12.5 29q4 16 14.5 34t32.5 18q14 0 27 -9.5t13 -29.5q0 -13 -8.5 -32t-26.5 -39q-23 -25 -62 -39.5t-99 -14.5t-105 22 q-46 23 -79 67t-51 108q-7 28 -12 62h-85z" />
<glyph unicode="&#x2122;" horiz-adv-x="916" d="M128 339v22l32 1q8 1 11.5 5.5t3.5 18.5v261h-41q-21 0 -36 -7t-26.5 -17.5t-19 -23t-13.5 -24.5l-25 12l23 91l18 6q20 -11 44 -11h218q22 0 42 11l18 -6l24 -92l-26 -11q-6 12 -13.5 24.5t-18 23t-25.5 17.5t-36 7h-40v-261q0 -23 16 -24q3 0 7 -0.5t9 -0.5h18v-22 h-164zM428 339v22l26 1q16 1 16 24v245q0 11 -4 14t-12 4q-14 0 -20.5 0.5t-8.5 0.5v23h109l123 -250l115 250h108v-23l-30 -1q-15 -2 -15 -21v-242q0 -14 3.5 -18t12.5 -6q2 0 5.5 -0.5t7.5 -0.5h16v-22h-152v22l26 1q16 1 16 24v195l-117 -246h-21l-127 256v-205 q0 -23 16 -24q2 0 5.5 -0.5t7.5 -0.5h16v-22h-122z" />
<glyph unicode="&#x2212;" d="M76 304v42h366v-42h-366z" />
<glyph horiz-adv-x="500" d="M88 743q0 15 4.5 32.5t15 32t28 24.5t43.5 10q23 0 44 -6.5t42 -14t42 -13.5t44 -6q20 0 28 12.5t13 30.5h34q0 -15 -4.5 -32.5t-15 -32t-28 -24.5t-43.5 -10q-23 0 -44 6.5t-42 14t-42 14t-44 6.5q-20 0 -28 -13t-13 -31h-34z" />
<glyph horiz-adv-x="500" d="M306 754q-13 13 -13 33t13.5 33t33.5 13t33 -13t13 -33t-13 -33t-33 -13q-21 0 -34 13zM126 754q-13 13 -13 33t13.5 33t33.5 13t33 -13t13 -33t-13 -33t-33 -13q-21 0 -34 13z" />
<glyph horiz-adv-x="500" d="M113 729l102 117q6 8 13.5 14.5t17.5 6.5t16 -7l15 -14l101 -117l-16 -16l-116 84l-116 -84z" />
<glyph horiz-adv-x="500" d="M200 714l-14 18l136 137q8 8 16 8q7 0 14 -5.5t11 -11.5q9 -11 9 -24q0 -9 -10 -16z" />
<glyph horiz-adv-x="500" d="M188 820q-10 7 -10 16q0 13 9 24q4 6 11 11.5t14 5.5q8 0 16 -8l136 -137l-14 -18z" />
</font>
</defs>
</svg>
